<svg xmlns="http://www.w3.org/2000/svg" xmlns:v="https://svgstorm.com"
viewBox = "0 0 996 276"
width="996"
height="276">
<g fill="None" fill-opacity="0.0" stroke="#000000" stroke-opacity="0.00" stroke-width="0.3"><path d="
M 0.00 88.00 
C 0.50 88.00 1.00 88.00 1.00 88.00
C 13.27 92.43 27.88 100.79 31.00 113.00
C 32.22 117.79 34.38 122.33 36.00 127.00
C 41.12 136.69 49.42 143.74 57.00 152.00
C 62.36 155.98 67.85 159.59 74.00 162.00
C 77.55 163.39 81.65 165.03 85.00 166.00
C 88.88 167.13 90.02 167.96 91.92 171.08 C 93.83 174.20 93.78 178.14 96.00 180.00
C 99.68 179.20 104.84 181.49 108.00 179.00
C 111.23 175.44 110.52 169.49 115.00 167.00
C 116.12 166.38 116.40 166.14 118.00 166.00
C 121.48 165.12 125.35 163.43 129.00 162.00
C 134.21 159.96 139.42 157.41 144.00 154.00
C 151.76 148.23 160.77 140.42 165.00 132.00
C 165.26 130.59 165.54 130.98 166.00 130.00
C 166.76 128.41 166.75 127.32 168.00 126.00
C 168.25 125.74 168.89 125.26 169.00 125.00
C 171.23 118.21 173.12 111.19 174.00 104.00
C 184.14 99.79 192.83 92.01 203.00 88.00
C 205.89 89.72 203.11 95.80 204.00 99.00 C 204.89 102.20 203.48 108.34 203.00 111.00
C 202.51 118.15 199.58 125.41 197.00 132.00
C 194.15 139.25 190.39 146.37 187.00 153.00
C 182.23 166.95 171.60 185.40 161.00 196.00
C 159.08 198.68 156.84 201.48 155.00 204.00
C 152.48 210.27 147.13 216.41 142.75 221.75 C 138.37 227.09 135.24 234.08 130.00 239.00
C 136.53 239.00 142.76 238.99 149.00 238.00
C 157.96 236.57 167.06 235.42 176.00 234.00
C 188.25 232.05 201.19 228.83 213.00 225.00
C 215.80 224.09 218.72 221.35 222.00 221.00
C 217.68 226.49 212.79 230.40 207.00 234.00
C 198.08 240.12 189.08 244.23 179.00 248.00
C 166.09 252.83 152.98 254.73 139.00 257.00
C 135.47 257.57 131.17 258.00 127.00 258.00
C 122.96 258.39 117.76 259.43 113.00 259.00
C 110.10 263.66 106.29 267.63 103.00 272.00
C 97.19 269.02 92.85 262.30 89.00 257.00
C 83.00 256.33 76.92 255.00 71.00 254.00
C 56.76 251.59 31.99 246.77 25.00 232.00
C 23.02 227.82 23.11 224.30 24.00 220.00
C 24.85 215.91 27.00 208.33 30.75 205.75 C 34.50 203.18 37.54 196.30 42.00 196.00
C 41.13 195.07 41.53 193.93 41.00 193.00
C 26.90 168.38 3.07 142.35 1.00 112.00
C 0.99 111.94 0.00 112.00 0.00 112.00
L 0.00 276.00
L 242.00 276.00
C 242.00 275.50 242.00 275.00 242.00 275.00
C 242.00 234.33 242.00 193.67 242.00 153.00
C 486.94 152.26 731.21 154.14 976.00 154.00
C 949.05 194.76 921.53 235.04 895.00 276.00
L 996.00 276.00
L 996.00 83.00
C 989.39 125.91 940.13 125.90 905.00 123.00
C 905.00 89.67 905.00 56.33 905.00 23.00
C 940.11 20.11 989.44 20.15 996.00 63.00
L 996.00 0.00
L 115.00 0.00
C 115.00 0.50 115.00 1.00 115.00 1.00
C 115.50 1.00 116.00 1.00 116.00 1.00
C 119.82 0.74 123.85 2.12 127.00 3.00
C 143.47 3.87 162.79 18.34 174.00 30.00
C 181.82 38.13 189.13 47.26 194.00 57.00
C 197.36 63.71 203.38 74.10 194.92 77.92 C 186.47 81.75 183.16 86.44 175.00 90.00
C 175.71 86.39 173.77 83.51 174.00 80.00
C 173.32 77.06 172.00 73.21 171.00 70.00
C 170.55 68.56 170.30 67.54 170.00 66.00
C 165.61 53.42 152.32 40.23 141.00 33.00
C 129.30 27.95 119.23 22.72 106.00 22.00
C 103.08 21.84 99.92 21.80 97.00 22.00
C 81.90 23.03 66.55 29.03 55.00 39.00
C 49.52 43.73 42.55 49.63 39.00 56.00
C 37.00 61.42 33.95 66.52 32.00 72.00
C 29.98 77.68 29.02 83.76 29.00 90.00
C 20.41 86.00 12.74 79.76 4.00 76.00
C 3.00 69.57 6.86 64.55 9.00 59.00
C 11.73 52.67 15.88 43.99 22.00 40.00
C 21.77 39.64 22.00 39.00 22.00 39.00
C 24.27 35.36 27.03 32.97 30.00 30.00
C 40.79 17.38 55.86 9.85 71.00 5.00
C 73.10 4.33 74.86 3.60 77.00 3.00
C 80.19 2.11 84.16 0.74 88.00 1.00
C 88.50 1.03 89.00 1.00 89.00 1.00
C 89.25 0.75 89.00 0.00 89.00 0.00
L 0.00 0.00
L 0.00 88.00
M 499.00 52.00 
C 489.67 52.00 480.33 52.00 471.00 52.00
C 473.01 33.47 443.15 44.76 452.26 54.74 C 461.36 64.73 472.51 63.03 483.23 68.77 C 493.95 74.51 502.10 84.50 500.00 97.00 C 497.90 109.50 491.13 117.31 479.78 121.78 C 468.42 126.24 451.83 124.82 440.92 120.08 C 430.02 115.33 423.90 104.17 423.00 93.00
C 433.87 94.19 448.48 88.64 453.25 99.75 C 458.03 110.85 477.75 100.73 472.22 91.78 C 466.69 82.83 455.25 83.07 446.78 79.22 C 438.31 75.38 429.40 72.40 426.08 62.92 C 422.75 53.45 422.52 41.21 429.30 33.30 C 436.09 25.40 445.04 22.33 455.07 21.07 C 465.10 19.82 477.06 22.26 485.70 27.31 C 494.33 32.35 498.13 42.55 499.00 52.00
M 308.00 23.00 
C 308.00 29.67 308.00 36.33 308.00 43.00
C 295.67 43.00 283.33 43.00 271.00 43.00
C 271.00 49.33 271.00 55.67 271.00 62.00
C 281.67 62.00 292.33 62.00 303.00 62.00
C 303.00 68.67 303.00 75.33 303.00 82.00
C 292.33 82.00 281.67 82.00 271.00 82.00
C 271.00 89.00 271.00 96.00 271.00 103.00
C 283.33 103.00 295.67 103.00 308.00 103.00
C 308.00 109.67 308.00 116.33 308.00 123.00
C 287.00 123.00 266.00 123.00 245.00 123.00
C 245.00 89.67 245.00 56.33 245.00 23.00
C 266.00 23.00 287.00 23.00 308.00 23.00
M 417.00 123.00 
C 408.00 123.00 399.00 123.00 390.00 123.00
C 388.77 117.22 385.73 111.95 385.00 106.00
C 372.67 106.00 360.33 106.00 348.00 106.00
C 346.77 111.78 343.73 117.05 343.00 123.00
C 334.00 123.00 325.00 123.00 316.00 123.00
C 317.65 115.07 321.46 108.55 323.78 100.78 C 326.09 93.00 329.41 86.77 331.78 78.78 C 334.14 70.78 337.45 65.40 339.78 56.78 C 342.10 48.15 345.63 44.86 347.78 34.78 C 349.93 24.69 354.71 22.81 366.00 23.00 C 377.29 23.19 382.87 23.64 384.98 34.02 C 387.08 44.41 390.80 47.21 392.98 56.02 C 395.15 64.84 398.71 69.90 400.98 78.02 C 403.24 86.15 406.88 92.07 408.98 100.02 C 411.07 107.98 415.59 114.87 417.00 123.00
M 536.00 23.00 
C 540.35 36.39 548.06 48.75 553.00 62.00
C 561.15 51.35 566.26 35.94 572.00 23.00
C 581.67 23.00 591.33 23.00 601.00 23.00
C 595.22 32.91 592.23 43.05 586.08 53.08 C 579.92 63.10 577.05 72.12 570.69 82.69 C 564.34 93.27 565.79 110.02 566.00 123.00
C 557.67 123.00 549.33 123.00 541.00 123.00
C 540.59 110.36 543.21 93.43 537.08 82.92 C 530.95 72.41 527.58 63.38 521.70 53.30 C 515.82 43.22 511.86 33.38 507.00 23.00
C 516.67 23.00 526.33 23.00 536.00 23.00
M 706.00 23.00 
C 706.00 29.67 706.00 36.33 706.00 43.00
C 692.67 43.00 679.33 43.00 666.00 43.00
C 666.00 49.67 666.00 56.33 666.00 63.00
C 676.00 63.00 686.00 63.00 696.00 63.00
C 696.00 69.67 696.00 76.33 696.00 83.00
C 686.00 83.00 676.00 83.00 666.00 83.00
C 666.00 96.33 666.00 109.67 666.00 123.00
C 657.33 123.00 648.67 123.00 640.00 123.00
C 640.00 89.67 640.00 56.33 640.00 23.00
C 662.00 23.00 684.00 23.00 706.00 23.00
M 744.00 23.00 
C 744.00 56.33 744.00 89.67 744.00 123.00
C 735.33 123.00 726.67 123.00 718.00 123.00
C 718.00 89.67 718.00 56.33 718.00 23.00
C 726.67 23.00 735.33 23.00 744.00 23.00
M 823.00 23.00 
C 823.00 29.67 823.00 36.33 823.00 43.00
C 810.67 43.00 798.33 43.00 786.00 43.00
C 786.00 49.33 786.00 55.67 786.00 62.00
C 796.67 62.00 807.33 62.00 818.00 62.00
C 818.00 68.67 818.00 75.33 818.00 82.00
C 807.33 82.00 796.67 82.00 786.00 82.00
C 786.00 89.00 786.00 96.00 786.00 103.00
C 798.33 103.00 810.67 103.00 823.00 103.00
C 823.00 109.67 823.00 116.33 823.00 123.00
C 802.00 123.00 781.00 123.00 760.00 123.00
C 760.00 89.67 760.00 56.33 760.00 23.00
C 781.00 23.00 802.00 23.00 823.00 23.00
M 863.00 23.00 
C 863.00 50.00 863.00 77.00 863.00 104.00
C 873.67 104.00 884.33 104.00 895.00 104.00
C 895.00 110.33 895.00 116.67 895.00 123.00
C 875.67 123.00 856.33 123.00 837.00 123.00
C 837.00 89.67 837.00 56.33 837.00 23.00
C 845.67 23.00 854.33 23.00 863.00 23.00
M 109.00 90.00 
C 119.52 92.61 128.54 102.02 130.00 113.00
C 130.58 117.33 129.89 122.41 129.00 126.00
C 121.97 154.40 79.18 152.89 73.00 125.00
C 72.04 120.68 72.12 116.25 73.00 112.00
C 75.35 100.67 82.56 92.53 94.00 90.00
C 98.78 88.94 104.27 88.83 109.00 90.00 Z"/>
</g>
<g fill="None" fill-opacity="0.0" stroke="#F08F7C" stroke-opacity="0.93" stroke-width="0.3"><path d="
M 89.00 1.00 
C 97.67 1.00 106.33 1.00 115.00 1.00
C 115.00 1.00 115.00 0.50 115.00 0.00
L 89.00 0.00
C 89.00 0.00 89.25 0.75 89.00 1.00 Z"/>
</g>
<g fill="None" fill-opacity="0.0" stroke="#F6AD6C" stroke-opacity="0.43" stroke-width="0.3"><path d="
M 77.00 3.00 
C 77.75 3.05 78.81 3.99 79.00 4.00
C 81.97 2.84 85.41 2.13 88.00 1.00
C 84.16 0.74 80.19 2.11 77.00 3.00 Z"/>
</g>
<g fill="None" fill-opacity="0.0" stroke="#E02D33" stroke-opacity="0.98" stroke-width="0.3"><path d="
M 79.00 4.00 
C 77.29 4.67 75.68 5.24 74.00 6.00
C 56.07 14.07 47.44 28.84 39.00 45.00
C 39.68 44.84 43.30 46.40 45.00 46.00
C 48.06 43.05 51.53 41.08 55.00 39.00
C 66.55 29.03 81.90 23.03 97.00 22.00
C 100.19 21.43 102.89 21.49 106.00 22.00
C 119.23 22.72 129.30 27.95 141.00 33.00
C 147.28 35.71 153.74 41.23 159.00 46.00
C 161.08 46.39 163.84 44.95 165.00 45.00
C 154.73 27.10 144.61 10.70 124.00 3.00
C 121.23 2.77 118.23 1.98 116.00 1.00
C 116.00 1.00 115.50 1.00 115.00 1.00
C 106.33 1.00 97.67 1.00 89.00 1.00
C 89.00 1.00 88.50 1.03 88.00 1.00
C 85.41 2.13 81.97 2.84 79.00 4.00 Z"/>
</g>
<g fill="None" fill-opacity="0.0" stroke="#F8B77A" stroke-opacity="0.34" stroke-width="0.3"><path d="
M 124.00 3.00 
C 124.99 3.08 126.01 2.95 127.00 3.00
C 123.85 2.12 119.82 0.74 116.00 1.00
C 118.23 1.98 121.23 2.77 124.00 3.00 Z"/>
</g>
<g fill="None" fill-opacity="0.0" stroke="#F6A646" stroke-opacity="0.69" stroke-width="0.3"><path d="
M 71.00 5.00 
C 71.26 5.00 73.82 6.03 74.00 6.00
C 75.68 5.24 77.29 4.67 79.00 4.00
C 78.81 3.99 77.75 3.05 77.00 3.00
C 74.86 3.60 73.10 4.33 71.00 5.00 Z"/>
</g>
<g fill="None" fill-opacity="0.0" stroke="#F49C38" stroke-opacity="0.93" stroke-width="0.3"><path d="
M 165.00 45.00 
C 165.67 45.03 166.29 45.85 167.00 46.00
C 172.57 47.19 179.61 44.23 185.00 46.00
C 181.06 41.16 176.30 33.69 174.00 30.00
C 162.79 18.34 143.47 3.87 127.00 3.00
C 126.01 2.95 124.99 3.08 124.00 3.00
C 144.61 10.70 154.73 27.10 165.00 45.00 Z"/>
</g>
<g fill="None" fill-opacity="0.0" stroke="#F39737" stroke-opacity="0.94" stroke-width="0.3"><path d="
M 30.00 30.00 
C 27.47 32.96 25.16 36.94 22.00 39.00
C 22.00 39.00 21.77 39.64 22.00 40.00
C 23.26 41.98 16.50 47.74 15.00 50.00
C 17.22 48.90 33.66 48.98 35.00 51.00
C 35.83 48.23 37.91 47.09 39.00 45.00
C 47.44 28.84 56.07 14.07 74.00 6.00
C 73.82 6.03 71.26 5.00 71.00 5.00
C 55.86 9.85 40.79 17.38 30.00 30.00 Z"/>
</g>
<g fill="None" fill-opacity="0.0" stroke="#EE8F92" stroke-opacity="0.25" stroke-width="0.3"><path d="
M 97.00 22.00 
C 99.92 21.80 103.08 21.84 106.00 22.00
C 102.89 21.49 100.19 21.43 97.00 22.00 Z"/>
</g>
<g fill="None" fill-opacity="0.0" stroke="#ED7932" stroke-opacity="0.96" stroke-width="0.3"><path d="
M 499.00 52.00 
C 498.13 42.55 494.33 32.35 485.70 27.31 C 477.06 22.26 465.10 19.82 455.07 21.07 C 445.04 22.33 436.09 25.40 429.30 33.30 C 422.52 41.21 422.75 53.45 426.08 62.92 C 429.40 72.40 438.31 75.38 446.78 79.22 C 455.25 83.07 466.69 82.83 472.22 91.78 C 477.75 100.73 458.03 110.85 453.25 99.75 C 448.48 88.64 433.87 94.19 423.00 93.00
C 423.90 104.17 430.02 115.33 440.92 120.08 C 451.83 124.82 468.42 126.24 479.78 121.78 C 491.13 117.31 497.90 109.50 500.00 97.00 C 502.10 84.50 493.95 74.51 483.23 68.77 C 472.51 63.03 461.36 64.73 452.26 54.74 C 443.15 44.76 473.01 33.47 471.00 52.00
C 480.33 52.00 489.67 52.00 499.00 52.00 Z"/>
</g>
<g fill="None" fill-opacity="0.0" stroke="#EC7832" stroke-opacity="0.96" stroke-width="0.3"><path d="
M 308.00 23.00 
C 287.00 23.00 266.00 23.00 245.00 23.00
C 245.00 56.33 245.00 89.67 245.00 123.00
C 266.00 123.00 287.00 123.00 308.00 123.00
C 308.00 116.33 308.00 109.67 308.00 103.00
C 295.67 103.00 283.33 103.00 271.00 103.00
C 271.00 96.00 271.00 89.00 271.00 82.00
C 281.67 82.00 292.33 82.00 303.00 82.00
C 303.00 75.33 303.00 68.67 303.00 62.00
C 292.33 62.00 281.67 62.00 271.00 62.00
C 271.00 55.67 271.00 49.33 271.00 43.00
C 283.33 43.00 295.67 43.00 308.00 43.00
C 308.00 36.33 308.00 29.67 308.00 23.00 Z"/>
</g>
<g fill="None" fill-opacity="0.0" stroke="#ED7932" stroke-opacity="0.96" stroke-width="0.3"><path d="
M 417.00 123.00 
C 415.59 114.87 411.07 107.98 408.98 100.02 C 406.88 92.07 403.24 86.15 400.98 78.02 C 398.71 69.90 395.15 64.84 392.98 56.02 C 390.80 47.21 387.08 44.41 384.98 34.02 C 382.87 23.64 377.29 23.19 366.00 23.00 C 354.71 22.81 349.93 24.69 347.78 34.78 C 345.63 44.86 342.10 48.15 339.78 56.78 C 337.45 65.40 334.14 70.78 331.78 78.78 C 329.41 86.77 326.09 93.00 323.78 100.78 C 321.46 108.55 317.65 115.07 316.00 123.00
C 325.00 123.00 334.00 123.00 343.00 123.00
C 343.73 117.05 346.77 111.78 348.00 106.00
C 360.33 106.00 372.67 106.00 385.00 106.00
C 385.73 111.95 388.77 117.22 390.00 123.00
C 399.00 123.00 408.00 123.00 417.00 123.00
M 367.00 52.00 
C 369.81 63.55 374.17 74.71 378.00 86.00
C 370.33 86.00 362.67 86.00 355.00 86.00
C 359.34 74.89 362.23 62.66 367.00 52.00 Z"/>
</g>
<g fill="None" fill-opacity="0.0" stroke="#ED7931" stroke-opacity="0.97" stroke-width="0.3"><path d="
M 536.00 23.00 
C 526.33 23.00 516.67 23.00 507.00 23.00
C 511.86 33.38 515.82 43.22 521.70 53.30 C 527.58 63.38 530.95 72.41 537.08 82.92 C 543.21 93.43 540.59 110.36 541.00 123.00
C 549.33 123.00 557.67 123.00 566.00 123.00
C 565.79 110.02 564.34 93.27 570.69 82.69 C 577.05 72.12 579.92 63.10 586.08 53.08 C 592.23 43.05 595.22 32.91 601.00 23.00
C 591.33 23.00 581.67 23.00 572.00 23.00
C 566.26 35.94 561.15 51.35 553.00 62.00
C 548.06 48.75 540.35 36.39 536.00 23.00 Z"/>
</g>
<g fill="None" fill-opacity="0.0" stroke="#EC7832" stroke-opacity="0.96" stroke-width="0.3"><path d="
M 706.00 23.00 
C 684.00 23.00 662.00 23.00 640.00 23.00
C 640.00 56.33 640.00 89.67 640.00 123.00
C 648.67 123.00 657.33 123.00 666.00 123.00
C 666.00 109.67 666.00 96.33 666.00 83.00
C 676.00 83.00 686.00 83.00 696.00 83.00
C 696.00 76.33 696.00 69.67 696.00 63.00
C 686.00 63.00 676.00 63.00 666.00 63.00
C 666.00 56.33 666.00 49.67 666.00 43.00
C 679.33 43.00 692.67 43.00 706.00 43.00
C 706.00 36.33 706.00 29.67 706.00 23.00 Z"/>
</g>
<g fill="None" fill-opacity="0.0" stroke="#EC7832" stroke-opacity="0.94" stroke-width="0.3"><path d="
M 744.00 23.00 
C 735.33 23.00 726.67 23.00 718.00 23.00
C 718.00 56.33 718.00 89.67 718.00 123.00
C 726.67 123.00 735.33 123.00 744.00 123.00
C 744.00 89.67 744.00 56.33 744.00 23.00 Z"/>
</g>
<g fill="None" fill-opacity="0.0" stroke="#EC7832" stroke-opacity="0.96" stroke-width="0.3"><path d="
M 823.00 23.00 
C 802.00 23.00 781.00 23.00 760.00 23.00
C 760.00 56.33 760.00 89.67 760.00 123.00
C 781.00 123.00 802.00 123.00 823.00 123.00
C 823.00 116.33 823.00 109.67 823.00 103.00
C 810.67 103.00 798.33 103.00 786.00 103.00
C 786.00 96.00 786.00 89.00 786.00 82.00
C 796.67 82.00 807.33 82.00 818.00 82.00
C 818.00 75.33 818.00 68.67 818.00 62.00
C 807.33 62.00 796.67 62.00 786.00 62.00
C 786.00 55.67 786.00 49.33 786.00 43.00
C 798.33 43.00 810.67 43.00 823.00 43.00
C 823.00 36.33 823.00 29.67 823.00 23.00 Z"/>
</g>
<g fill="None" fill-opacity="0.0" stroke="#EC7832" stroke-opacity="0.95" stroke-width="0.3"><path d="
M 863.00 23.00 
C 854.33 23.00 845.67 23.00 837.00 23.00
C 837.00 56.33 837.00 89.67 837.00 123.00
C 856.33 123.00 875.67 123.00 895.00 123.00
C 895.00 116.67 895.00 110.33 895.00 104.00
C 884.33 104.00 873.67 104.00 863.00 104.00
C 863.00 77.00 863.00 50.00 863.00 23.00 Z"/>
</g>
<g fill="None" fill-opacity="0.0" stroke="#EC7932" stroke-opacity="0.96" stroke-width="0.3"><path d="
M 996.00 83.00 
L 996.00 80.00
C 994.40 76.40 994.29 69.53 996.00 66.00
L 996.00 63.00
C 989.44 20.15 940.11 20.11 905.00 23.00
C 905.00 56.33 905.00 89.67 905.00 123.00
C 940.13 125.90 989.39 125.91 996.00 83.00
M 931.00 101.00 
C 931.00 82.00 931.00 63.00 931.00 44.00
C 951.34 41.33 969.32 50.35 970.00 72.00 C 970.68 93.65 952.33 105.65 931.00 101.00 Z"/>
</g>
<g fill="None" fill-opacity="0.0" stroke="#F8C098" stroke-opacity="0.20" stroke-width="0.3"><path d="
M 22.00 39.00 
C 25.16 36.94 27.47 32.96 30.00 30.00
C 27.03 32.97 24.27 35.36 22.00 39.00 Z"/>
</g>
<g fill="None" fill-opacity="0.0" stroke="#F4A058" stroke-opacity="0.49" stroke-width="0.3"><path d="
M 185.00 46.00 
C 187.94 49.61 191.30 53.30 194.00 57.00
C 189.13 47.26 181.82 38.13 174.00 30.00
C 176.30 33.69 181.06 41.16 185.00 46.00 Z"/>
</g>
<g fill="None" fill-opacity="0.0" stroke="#EA6B5B" stroke-opacity="0.46" stroke-width="0.3"><path d="
M 170.00 66.00 
C 168.72 59.41 164.24 50.75 159.00 46.00
C 153.74 41.23 147.28 35.71 141.00 33.00
C 152.32 40.23 165.61 53.42 170.00 66.00 Z"/>
</g>
<g fill="None" fill-opacity="0.0" stroke="#EA6759" stroke-opacity="0.47" stroke-width="0.3"><path d="
M 45.00 46.00 
C 41.83 49.04 40.39 52.23 39.00 56.00
C 42.55 49.63 49.52 43.73 55.00 39.00
C 51.53 41.08 48.06 43.05 45.00 46.00 Z"/>
</g>
<g fill="None" fill-opacity="0.0" stroke="#F1944E" stroke-opacity="0.51" stroke-width="0.3"><path d="
M 9.00 59.00 
C 10.80 56.18 13.05 52.93 15.00 50.00
C 16.50 47.74 23.26 41.98 22.00 40.00
C 15.88 43.99 11.73 52.67 9.00 59.00 Z"/>
</g>
<g fill="None" fill-opacity="0.0" stroke="#000000" stroke-opacity="0.00" stroke-width="0.3"><path d="
M 931.00 101.00 
C 952.33 105.65 970.68 93.65 970.00 72.00 C 969.32 50.35 951.34 41.33 931.00 44.00
C 931.00 63.00 931.00 82.00 931.00 101.00 Z"/>
</g>
<g fill="None" fill-opacity="0.0" stroke="#E65A39" stroke-opacity="0.90" stroke-width="0.3"><path d="
M 35.00 51.00 
C 33.48 56.06 32.45 61.96 31.01 67.01 C 29.57 72.06 31.95 71.46 32.00 72.00
C 33.95 66.52 37.00 61.42 39.00 56.00
C 40.39 52.23 41.83 49.04 45.00 46.00
C 43.30 46.40 39.68 44.84 39.00 45.00
C 37.91 47.09 35.83 48.23 35.00 51.00 Z"/>
</g>
<g fill="None" fill-opacity="0.0" stroke="#E55332" stroke-opacity="0.97" stroke-width="0.3"><path d="
M 159.00 46.00 
C 164.24 50.75 168.72 59.41 170.00 66.00
C 170.30 67.54 170.55 68.56 171.00 70.00
C 171.33 70.34 172.81 70.71 173.00 71.00
C 171.91 63.39 170.83 52.68 167.00 46.00
C 166.29 45.85 165.67 45.03 165.00 45.00
C 163.84 44.95 161.08 46.39 159.00 46.00 Z"/>
</g>
<g fill="None" fill-opacity="0.0" stroke="#EE8236" stroke-opacity="0.96" stroke-width="0.3"><path d="
M 173.00 71.00 
C 173.43 74.01 173.65 76.85 174.00 80.00
C 173.77 83.51 175.71 86.39 175.00 90.00
C 183.16 86.44 186.47 81.75 194.92 77.92 C 203.38 74.10 197.36 63.71 194.00 57.00
C 191.30 53.30 187.94 49.61 185.00 46.00
C 179.61 44.23 172.57 47.19 167.00 46.00
C 170.83 52.68 171.91 63.39 173.00 71.00 Z"/>
</g>
<g fill="None" fill-opacity="0.0" stroke="#ED7D37" stroke-opacity="0.95" stroke-width="0.3"><path d="
M 9.00 59.00 
C 6.86 64.55 3.00 69.57 4.00 76.00
C 12.74 79.76 20.41 86.00 29.00 90.00
C 29.02 83.76 29.98 77.68 32.00 72.00
C 31.95 71.46 29.57 72.06 31.01 67.01 C 32.45 61.96 33.48 56.06 35.00 51.00
C 33.66 48.98 17.22 48.90 15.00 50.00
C 13.05 52.93 10.80 56.18 9.00 59.00 Z"/>
</g>
<g fill="None" fill-opacity="0.0" stroke="#000000" stroke-opacity="0.00" stroke-width="0.3"><path d="
M 367.00 52.00 
C 362.23 62.66 359.34 74.89 355.00 86.00
C 362.67 86.00 370.33 86.00 378.00 86.00
C 374.17 74.71 369.81 63.55 367.00 52.00 Z"/>
</g>
<g fill="None" fill-opacity="0.0" stroke="#EC7931" stroke-opacity="0.66" stroke-width="0.3"><path d="
M 996.00 80.00 
L 996.00 66.00
C 994.29 69.53 994.40 76.40 996.00 80.00 Z"/>
</g>
<g fill="None" fill-opacity="0.0" stroke="#F09269" stroke-opacity="0.40" stroke-width="0.3"><path d="
M 174.00 80.00 
C 173.65 76.85 173.43 74.01 173.00 71.00
C 172.81 70.71 171.33 70.34 171.00 70.00
C 172.00 73.21 173.32 77.06 174.00 80.00 Z"/>
</g>
<g fill="None" fill-opacity="0.0" stroke="#4C9ECC" stroke-opacity="0.95" stroke-width="0.3"><path d="
M 0.00 100.00 
C 0.95 99.63 1.72 98.98 2.00 98.00
C 1.27 94.85 0.88 91.36 1.00 88.00
C 1.00 88.00 0.50 88.00 0.00 88.00
L 0.00 100.00 Z"/>
</g>
<g fill="None" fill-opacity="0.0" stroke="#1E4A96" stroke-opacity="0.96" stroke-width="0.3"><path d="
M 2.00 98.00 
C 4.66 109.45 9.66 120.17 16.00 130.00
C 15.95 123.34 28.52 118.62 31.00 113.00
C 27.88 100.79 13.27 92.43 1.00 88.00
C 0.88 91.36 1.27 94.85 2.00 98.00 Z"/>
</g>
<g fill="None" fill-opacity="0.0" stroke="#1D4F99" stroke-opacity="0.96" stroke-width="0.3"><path d="
M 169.00 125.00 
C 168.88 125.35 168.29 125.78 168.00 126.00
C 166.75 127.32 166.76 128.41 166.00 130.00
C 166.88 128.93 168.22 128.08 169.00 127.00
C 171.45 131.27 176.82 138.89 182.00 138.00
C 188.59 135.02 191.27 123.88 194.92 117.92 C 198.58 111.97 201.87 99.68 203.00 93.00
C 203.00 91.33 203.00 89.67 203.00 88.00
C 192.83 92.01 184.14 99.79 174.00 104.00
C 173.12 111.19 171.23 118.21 169.00 125.00 Z"/>
</g>
<g fill="None" fill-opacity="0.0" stroke="#6EB6D9" stroke-opacity="0.38" stroke-width="0.3"><path d="
M 203.00 93.00 
C 203.00 98.95 203.40 105.06 203.00 111.00
C 203.48 108.34 204.89 102.20 204.00 99.00 C 203.11 95.80 205.89 89.72 203.00 88.00
C 203.00 89.67 203.00 91.33 203.00 93.00 Z"/>
</g>
<g fill="None" fill-opacity="0.0" stroke="#518AC1" stroke-opacity="0.50" stroke-width="0.3"><path d="
M 94.00 90.00 
C 98.59 89.53 104.42 89.43 109.00 90.00
C 104.27 88.83 98.78 88.94 94.00 90.00 Z"/>
</g>
<g fill="None" fill-opacity="0.0" stroke="#2563A8" stroke-opacity="0.95" stroke-width="0.3"><path d="
M 73.00 112.00 
C 72.86 113.98 73.00 116.02 73.00 118.00
C 75.00 117.05 76.74 119.74 77.00 121.00
C 77.00 119.34 76.92 117.66 77.00 116.00
C 77.09 114.16 77.62 113.27 78.00 112.00
C 81.03 101.97 86.58 96.16 97.00 94.00
C 101.64 93.04 105.25 92.90 110.00 95.00
C 112.07 95.92 113.94 97.08 116.00 98.00
C 103.96 107.07 89.28 112.81 77.00 122.00
C 76.99 123.00 77.01 124.00 77.00 125.00
C 92.27 116.66 111.52 121.06 129.00 120.00
C 129.03 117.95 130.04 114.21 130.00 113.00
C 128.54 102.02 119.52 92.61 109.00 90.00
C 104.42 89.43 98.59 89.53 94.00 90.00
C 82.56 92.53 75.35 100.67 73.00 112.00 Z"/>
</g>
<g fill="None" fill-opacity="0.0" stroke="#6795C4" stroke-opacity="1.00" stroke-width="0.3"><path d="
M 97.00 94.00 
C 99.77 93.75 104.03 93.39 106.00 95.00
C 96.62 100.67 87.02 105.74 78.00 112.00
C 77.62 113.27 77.09 114.16 77.00 116.00
C 78.82 110.92 90.37 110.37 93.75 105.75 C 97.12 101.12 106.75 99.91 110.00 95.00
C 105.25 92.90 101.64 93.04 97.00 94.00 Z"/>
</g>
<g fill="None" fill-opacity="0.0" stroke="#2588C1" stroke-opacity="0.95" stroke-width="0.3"><path d="
M 182.00 138.00 
C 185.02 138.48 189.29 139.72 193.00 139.00
C 194.14 136.36 195.66 134.28 197.00 132.00
C 199.58 125.41 202.51 118.15 203.00 111.00
C 203.40 105.06 203.00 98.95 203.00 93.00
C 201.87 99.68 198.58 111.97 194.92 117.92 C 191.27 123.88 188.59 135.02 182.00 138.00 Z"/>
</g>
<g fill="None" fill-opacity="0.0" stroke="#88ADD2" stroke-opacity="1.00" stroke-width="0.3"><path d="
M 78.00 112.00 
C 87.02 105.74 96.62 100.67 106.00 95.00
C 104.03 93.39 99.77 93.75 97.00 94.00
C 86.58 96.16 81.03 101.97 78.00 112.00 Z"/>
</g>
<g fill="None" fill-opacity="0.0" stroke="#4A7FB8" stroke-opacity="1.00" stroke-width="0.3"><path d="
M 77.00 116.00 
C 76.92 117.66 77.00 119.34 77.00 121.00
C 77.00 121.50 77.00 122.00 77.00 122.00
C 89.28 112.81 103.96 107.07 116.00 98.00
C 113.94 97.08 112.07 95.92 110.00 95.00
C 106.75 99.91 97.12 101.12 93.75 105.75 C 90.37 110.37 78.82 110.92 77.00 116.00 Z"/>
</g>
<g fill="None" fill-opacity="0.0" stroke="#1B72B1" stroke-opacity="0.98" stroke-width="0.3"><path d="
M 0.00 100.00 
L 0.00 102.00
C 1.90 104.44 0.78 108.80 1.00 112.00
C 3.07 142.35 26.90 168.38 41.00 193.00
C 40.33 189.38 50.83 192.51 55.00 193.00 C 59.18 193.48 69.86 192.99 74.00 194.00 C 78.14 195.01 91.00 192.92 93.00 196.00
C 94.73 189.98 97.03 181.04 106.00 184.00
C 107.58 188.37 109.32 192.97 111.00 197.00
C 111.73 195.72 120.44 198.18 124.00 198.00 C 127.56 197.82 135.42 199.74 140.00 199.00 C 144.58 198.26 151.05 201.48 156.00 200.00
C 156.72 198.58 159.89 197.11 161.00 196.00
C 171.60 185.40 182.23 166.95 187.00 153.00
C 188.68 148.10 190.93 143.79 193.00 139.00
C 189.29 139.72 185.02 138.48 182.00 138.00
C 176.82 138.89 171.45 131.27 169.00 127.00
C 168.22 128.08 166.88 128.93 166.00 130.00
C 165.54 130.98 165.26 130.59 165.00 132.00
C 164.22 136.25 159.88 142.13 156.70 144.70 C 153.53 147.28 149.49 153.82 146.00 155.00
C 148.03 156.05 150.56 158.02 151.00 160.00
C 139.32 163.25 127.76 167.55 115.00 167.00
C 110.52 169.49 111.23 175.44 108.00 179.00
C 105.69 181.55 98.74 182.29 96.00 180.00
C 93.78 178.14 93.83 174.20 91.92 171.08 C 90.02 167.96 88.88 167.13 85.00 166.00
C 83.02 165.82 80.99 166.09 79.00 166.00
C 70.55 165.64 62.54 163.10 55.00 160.00
C 56.08 157.91 58.54 157.59 59.00 155.00
C 51.72 150.11 44.87 142.96 40.00 136.00
C 35.57 138.33 31.89 147.39 26.77 143.23 C 21.65 139.07 19.30 135.12 16.00 130.00
C 9.66 120.17 4.66 109.45 2.00 98.00
C 1.72 98.98 0.95 99.63 0.00 100.00 Z"/>
</g>
<g fill="None" fill-opacity="0.0" stroke="#65AED5" stroke-opacity="0.90" stroke-width="0.3"><path d="
M 0.00 112.00 
C 0.00 112.00 0.99 111.94 1.00 112.00
C 0.78 108.80 1.90 104.44 0.00 102.00
L 0.00 112.00 Z"/>
</g>
<g fill="None" fill-opacity="0.0" stroke="#6790C0" stroke-opacity="0.39" stroke-width="0.3"><path d="
M 73.00 125.00 
C 72.78 122.71 73.00 120.30 73.00 118.00
C 73.00 116.02 72.86 113.98 73.00 112.00
C 72.12 116.25 72.04 120.68 73.00 125.00 Z"/>
</g>
<g fill="None" fill-opacity="0.0" stroke="#1A5AA0" stroke-opacity="0.98" stroke-width="0.3"><path d="
M 16.00 130.00 
C 19.30 135.12 21.65 139.07 26.77 143.23 C 31.89 147.39 35.57 138.33 40.00 136.00
C 37.92 133.03 37.13 130.26 36.00 127.00
C 34.38 122.33 32.22 117.79 31.00 113.00
C 28.52 118.62 15.95 123.34 16.00 130.00 Z"/>
</g>
<g fill="None" fill-opacity="0.0" stroke="#4372B0" stroke-opacity="0.55" stroke-width="0.3"><path d="
M 129.00 120.00 
C 128.97 121.97 129.20 124.04 129.00 126.00
C 129.89 122.41 130.58 117.33 130.00 113.00
C 130.04 114.21 129.03 117.95 129.00 120.00 Z"/>
</g>
<g fill="None" fill-opacity="0.0" stroke="#1F4E9A" stroke-opacity="0.96" stroke-width="0.3"><path d="
M 73.00 125.00 
C 79.18 152.89 121.97 154.40 129.00 126.00
C 129.20 124.04 128.97 121.97 129.00 120.00
C 111.52 121.06 92.27 116.66 77.00 125.00
C 77.01 124.00 76.99 123.00 77.00 122.00
C 77.00 122.00 77.00 121.50 77.00 121.00
C 76.74 119.74 75.00 117.05 73.00 118.00
C 73.00 120.30 72.78 122.71 73.00 125.00 Z"/>
</g>
<g fill="None" fill-opacity="0.0" stroke="#80AACE" stroke-opacity="0.31" stroke-width="0.3"><path d="
M 168.00 126.00 
C 168.29 125.78 168.88 125.35 169.00 125.00
C 168.89 125.26 168.25 125.74 168.00 126.00 Z"/>
</g>
<g fill="None" fill-opacity="0.0" stroke="#4D8EC0" stroke-opacity="0.52" stroke-width="0.3"><path d="
M 40.00 136.00 
C 44.87 142.96 51.72 150.11 59.00 155.00
C 58.94 154.35 57.40 152.44 57.00 152.00
C 49.42 143.74 41.12 136.69 36.00 127.00
C 37.13 130.26 37.92 133.03 40.00 136.00 Z"/>
</g>
<g fill="None" fill-opacity="0.0" stroke="#4D90C3" stroke-opacity="0.53" stroke-width="0.3"><path d="
M 144.00 154.00 
C 143.34 154.00 146.25 155.13 146.00 155.00
C 149.49 153.82 153.53 147.28 156.70 144.70 C 159.88 142.13 164.22 136.25 165.00 132.00
C 160.77 140.42 151.76 148.23 144.00 154.00 Z"/>
</g>
<g fill="None" fill-opacity="0.0" stroke="#4E97C8" stroke-opacity="0.52" stroke-width="0.3"><path d="
M 193.00 139.00 
C 190.93 143.79 188.68 148.10 187.00 153.00
C 190.39 146.37 194.15 139.25 197.00 132.00
C 195.66 134.28 194.14 136.36 193.00 139.00 Z"/>
</g>
<g fill="None" fill-opacity="0.0" stroke="#3395C9" stroke-opacity="0.87" stroke-width="0.3"><path d="
M 59.00 155.00 
C 58.54 157.59 56.08 157.91 55.00 160.00
C 62.54 163.10 70.55 165.64 79.00 166.00
C 77.29 165.62 75.40 162.82 74.00 162.00
C 67.85 159.59 62.36 155.98 57.00 152.00
C 57.40 152.44 58.94 154.35 59.00 155.00 Z"/>
</g>
<g fill="None" fill-opacity="0.0" stroke="#1F7EBA" stroke-opacity="1.00" stroke-width="0.3"><path d="
M 242.00 275.00 
C 285.07 271.06 328.70 276.75 372.00 275.00 C 415.30 273.25 459.60 275.76 503.00 275.00 C 546.40 274.24 589.58 275.25 633.00 275.00 C 676.42 274.75 720.61 274.93 764.00 275.00 C 807.39 275.07 851.49 274.11 894.00 276.00
L 895.00 276.00
C 921.53 235.04 949.05 194.76 976.00 154.00
C 731.21 154.14 486.94 152.26 242.00 153.00
C 242.00 193.67 242.00 234.33 242.00 275.00
M 614.00 173.00 
C 624.70 174.20 621.99 191.18 611.00 189.00 C 600.01 186.81 603.20 171.79 614.00 173.00
M 386.00 196.00 
C 386.01 196.32 387.89 198.00 387.00 199.00
C 381.84 198.35 375.34 200.31 371.00 198.00
C 368.52 196.30 361.67 187.14 358.25 195.25 C 354.82 203.36 365.96 203.63 370.02 205.98 C 374.09 208.32 381.87 209.47 384.75 214.25 C 387.64 219.03 388.52 227.35 385.08 232.08 C 381.63 236.80 376.99 240.57 370.99 240.99 C 364.99 241.41 355.98 241.74 350.92 238.08 C 345.87 234.41 342.14 229.42 343.00 223.00
C 348.00 223.00 353.00 223.00 358.00 223.00
C 356.62 235.41 377.07 228.87 370.74 221.26 C 364.42 213.64 356.43 217.20 349.31 211.69 C 342.18 206.19 340.56 195.94 345.77 188.77 C 350.98 181.60 360.80 180.23 369.00 181.00 C 377.20 181.77 385.01 187.60 386.00 196.00
M 439.00 241.00 
C 435.73 241.73 433.21 241.66 430.00 241.00
C 421.50 239.24 412.80 234.43 411.08 224.92 C 409.35 215.41 410.97 205.76 417.75 198.75 C 424.54 191.74 437.91 192.39 445.23 195.77 C 452.55 199.15 461.29 209.82 458.00 218.00 C 454.71 226.19 432.28 218.10 425.00 221.00
C 423.72 229.55 439.01 234.05 441.00 225.00
C 446.00 225.00 451.00 225.00 456.00 225.00
C 455.51 233.06 446.74 240.33 439.00 241.00
M 507.00 209.00 
C 491.17 212.00 498.61 228.08 497.00 241.00
C 492.00 241.00 487.00 241.00 482.00 241.00
C 482.00 225.33 482.00 209.67 482.00 194.00
C 487.53 195.08 499.44 190.35 497.00 200.00
C 500.39 197.44 503.43 193.87 508.00 194.00
C 508.73 193.90 510.60 192.09 512.00 193.00
C 512.00 198.33 512.00 203.67 512.00 209.00
C 510.33 209.00 508.67 209.00 507.00 209.00
M 690.00 211.00 
C 684.67 211.00 679.33 211.00 674.00 211.00
C 669.08 200.70 658.44 207.51 658.01 217.01 C 657.57 226.51 668.85 234.99 674.00 224.00
C 679.00 224.00 684.00 224.00 689.00 224.00
C 682.89 251.07 643.09 244.79 643.40 217.26 C 643.71 189.73 683.13 183.94 690.00 211.00
M 741.00 241.00 
C 737.73 241.73 735.21 241.66 732.00 241.00
C 723.50 239.24 714.80 234.43 713.08 224.92 C 711.35 215.41 712.97 205.76 719.75 198.75 C 726.54 191.74 739.91 192.39 747.23 195.77 C 754.55 199.15 763.29 209.82 760.00 218.00 C 756.71 226.19 734.28 218.10 727.00 221.00
C 725.72 229.55 741.01 234.05 743.00 225.00
C 748.00 225.00 753.00 225.00 758.00 225.00
C 757.51 233.06 748.74 240.33 741.00 241.00
M 782.00 226.00 
C 783.61 223.51 794.06 224.80 796.00 226.00
C 798.16 227.34 804.74 235.48 808.23 229.23 C 811.72 222.97 800.87 222.76 797.33 221.67 C 793.79 220.58 787.76 218.77 785.25 214.75 C 782.73 210.73 782.36 203.77 785.77 199.77 C 789.18 195.77 793.24 194.36 798.22 193.22 C 803.21 192.09 810.56 193.31 814.70 196.31 C 818.83 199.30 822.17 203.90 822.00 209.00
C 817.67 209.00 813.33 209.00 809.00 209.00
C 800.33 196.75 793.78 211.56 805.67 212.33 C 817.57 213.10 822.60 219.73 822.00 230.00 C 821.40 240.27 808.75 241.46 800.93 241.07 C 793.10 240.68 781.55 236.19 782.00 226.00
M 547.00 194.00 
C 549.08 205.26 553.17 216.59 557.00 227.00
C 559.25 215.82 563.97 205.30 566.00 194.00
C 571.33 194.00 576.67 194.00 582.00 194.00
C 576.91 209.77 570.12 224.94 566.00 241.00
C 559.67 241.00 553.33 241.00 547.00 241.00
C 542.64 225.07 535.85 209.83 531.00 194.00
C 536.33 194.00 541.67 194.00 547.00 194.00
M 620.00 194.00 
C 620.00 209.67 620.00 225.33 620.00 241.00
C 615.00 241.00 610.00 241.00 605.00 241.00
C 605.00 225.33 605.00 209.67 605.00 194.00
C 610.00 194.00 615.00 194.00 620.00 194.00 Z"/>
</g>
<g fill="None" fill-opacity="0.0" stroke="#3093C7" stroke-opacity="0.89" stroke-width="0.3"><path d="
M 129.00 162.00 
C 125.24 164.21 123.72 165.49 118.00 166.00
C 116.40 166.14 116.12 166.38 115.00 167.00
C 127.76 167.55 139.32 163.25 151.00 160.00
C 150.56 158.02 148.03 156.05 146.00 155.00
C 146.25 155.13 143.34 154.00 144.00 154.00
C 139.42 157.41 134.21 159.96 129.00 162.00 Z"/>
</g>
<g fill="None" fill-opacity="0.0" stroke="#66B5D9" stroke-opacity="0.44" stroke-width="0.3"><path d="
M 79.00 166.00 
C 80.99 166.09 83.02 165.82 85.00 166.00
C 81.65 165.03 77.55 163.39 74.00 162.00
C 75.40 162.82 77.29 165.62 79.00 166.00 Z"/>
</g>
<g fill="None" fill-opacity="0.0" stroke="#6BB7DA" stroke-opacity="0.42" stroke-width="0.3"><path d="
M 118.00 166.00 
C 123.72 165.49 125.24 164.21 129.00 162.00
C 125.35 163.43 121.48 165.12 118.00 166.00 Z"/>
</g>
<g fill="None" fill-opacity="0.0" stroke="#F6FAFC" stroke-opacity="1.00" stroke-width="0.3"><path d="
M 614.00 173.00 
C 603.20 171.79 600.01 186.81 611.00 189.00 C 621.99 191.18 624.70 174.20 614.00 173.00 Z"/>
</g>
<g fill="None" fill-opacity="0.0" stroke="#4D8FC1" stroke-opacity="0.50" stroke-width="0.3"><path d="
M 96.00 180.00 
C 98.74 182.29 105.69 181.55 108.00 179.00
C 104.84 181.49 99.68 179.20 96.00 180.00 Z"/>
</g>
<g fill="None" fill-opacity="0.0" stroke="#FBFCFD" stroke-opacity="1.00" stroke-width="0.3"><path d="
M 371.00 198.00 
C 375.26 196.73 384.25 200.58 386.00 196.00
C 385.01 187.60 377.20 181.77 369.00 181.00 C 360.80 180.23 350.98 181.60 345.77 188.77 C 340.56 195.94 342.18 206.19 349.31 211.69 C 356.43 217.20 364.42 213.64 370.74 221.26 C 377.07 228.87 356.62 235.41 358.00 223.00
C 353.00 223.00 348.00 223.00 343.00 223.00
C 342.14 229.42 345.87 234.41 350.92 238.08 C 355.98 241.74 364.99 241.41 370.99 240.99 C 376.99 240.57 381.63 236.80 385.08 232.08 C 388.52 227.35 387.64 219.03 384.75 214.25 C 381.87 209.47 374.09 208.32 370.02 205.98 C 365.96 203.63 354.82 203.36 358.25 195.25 C 361.67 187.14 368.52 196.30 371.00 198.00 Z"/>
</g>
<g fill="None" fill-opacity="0.0" stroke="#000000" stroke-opacity="0.00" stroke-width="0.3"><path d="
M 93.00 196.00 
C 91.28 201.99 87.22 212.57 88.33 218.67 C 89.45 224.77 100.36 227.60 101.00 234.00
C 106.20 228.65 110.38 225.56 114.70 219.70 C 119.01 213.84 110.06 203.56 111.00 197.00
C 109.32 192.97 107.58 188.37 106.00 184.00
C 97.03 181.04 94.73 189.98 93.00 196.00 Z"/>
</g>
<g fill="None" fill-opacity="0.0" stroke="#2062A5" stroke-opacity="0.96" stroke-width="0.3"><path d="
M 41.00 193.00 
C 41.53 193.93 41.13 195.07 42.00 196.00
C 42.24 196.26 42.75 196.74 43.00 197.00
C 47.82 202.01 51.19 209.03 55.25 214.75 C 59.32 220.46 65.08 225.79 68.00 232.00
C 68.34 232.15 68.76 232.93 69.00 233.00
C 79.38 235.94 91.16 238.05 102.00 239.00
C 104.95 239.26 108.04 239.00 111.00 239.00
C 117.00 239.00 123.00 239.00 129.00 239.00
C 129.50 239.00 130.00 239.00 130.00 239.00
C 135.24 234.08 138.37 227.09 142.75 221.75 C 147.13 216.41 152.48 210.27 155.00 204.00
C 155.47 202.83 155.50 200.98 156.00 200.00
C 151.05 201.48 144.58 198.26 140.00 199.00 C 135.42 199.74 127.56 197.82 124.00 198.00 C 120.44 198.18 111.73 195.72 111.00 197.00
C 110.06 203.56 119.01 213.84 114.70 219.70 C 110.38 225.56 106.20 228.65 101.00 234.00
C 100.36 227.60 89.45 224.77 88.33 218.67 C 87.22 212.57 91.28 201.99 93.00 196.00
C 91.00 192.92 78.14 195.01 74.00 194.00 C 69.86 192.99 59.18 193.48 55.00 193.00 C 50.83 192.51 40.33 189.38 41.00 193.00 Z"/>
</g>
<g fill="None" fill-opacity="0.0" stroke="#FBFCFD" stroke-opacity="1.00" stroke-width="0.3"><path d="
M 430.00 241.00 
C 432.82 241.26 436.19 241.29 439.00 241.00
C 446.74 240.33 455.51 233.06 456.00 225.00
C 451.00 225.00 446.00 225.00 441.00 225.00
C 439.01 234.05 423.72 229.55 425.00 221.00
C 432.28 218.10 454.71 226.19 458.00 218.00 C 461.29 209.82 452.55 199.15 445.23 195.77 C 437.91 192.39 424.54 191.74 417.75 198.75 C 410.97 205.76 409.35 215.41 411.08 224.92 C 412.80 234.43 421.50 239.24 430.00 241.00
M 443.00 213.00 
C 437.00 213.00 431.00 213.00 425.00 213.00
C 424.28 202.20 443.71 202.18 443.00 213.00 Z"/>
</g>
<g fill="None" fill-opacity="0.0" stroke="#88BADA" stroke-opacity="1.00" stroke-width="0.3"><path d="
M 508.00 194.00 
C 508.96 194.20 510.03 193.84 511.00 194.00
C 511.00 198.67 511.00 203.33 511.00 208.00
C 509.72 208.28 507.50 207.24 507.00 209.00
C 508.67 209.00 510.33 209.00 512.00 209.00
C 512.00 203.67 512.00 198.33 512.00 193.00
C 510.60 192.09 508.73 193.90 508.00 194.00 Z"/>
</g>
<g fill="None" fill-opacity="0.0" stroke="#FAFCFD" stroke-opacity="1.00" stroke-width="0.3"><path d="
M 690.00 211.00 
C 683.13 183.94 643.71 189.73 643.40 217.26 C 643.09 244.79 682.89 251.07 689.00 224.00
C 684.00 224.00 679.00 224.00 674.00 224.00
C 668.85 234.99 657.57 226.51 658.01 217.01 C 658.44 207.51 669.08 200.70 674.00 211.00
C 679.33 211.00 684.67 211.00 690.00 211.00 Z"/>
</g>
<g fill="None" fill-opacity="0.0" stroke="#FBFCFD" stroke-opacity="1.00" stroke-width="0.3"><path d="
M 732.00 241.00 
C 734.82 241.26 738.19 241.29 741.00 241.00
C 748.74 240.33 757.51 233.06 758.00 225.00
C 753.00 225.00 748.00 225.00 743.00 225.00
C 741.01 234.05 725.72 229.55 727.00 221.00
C 734.28 218.10 756.71 226.19 760.00 218.00 C 763.29 209.82 754.55 199.15 747.23 195.77 C 739.91 192.39 726.54 191.74 719.75 198.75 C 712.97 205.76 711.35 215.41 713.08 224.92 C 714.80 234.43 723.50 239.24 732.00 241.00
M 745.00 213.00 
C 739.00 213.00 733.00 213.00 727.00 213.00
C 726.28 202.20 745.71 202.18 745.00 213.00 Z"/>
</g>
<g fill="None" fill-opacity="0.0" stroke="#F9FCFD" stroke-opacity="1.00" stroke-width="0.3"><path d="
M 796.00 226.00 
C 791.33 226.00 786.67 226.00 782.00 226.00
C 781.55 236.19 793.10 240.68 800.93 241.07 C 808.75 241.46 821.40 240.27 822.00 230.00 C 822.60 219.73 817.57 213.10 805.67 212.33 C 793.78 211.56 800.33 196.75 809.00 209.00
C 813.33 209.00 817.67 209.00 822.00 209.00
C 822.17 203.90 818.83 199.30 814.70 196.31 C 810.56 193.31 803.21 192.09 798.22 193.22 C 793.24 194.36 789.18 195.77 785.77 199.77 C 782.36 203.77 782.73 210.73 785.25 214.75 C 787.76 218.77 793.79 220.58 797.33 221.67 C 800.87 222.76 811.72 222.97 808.23 229.23 C 804.74 235.48 798.16 227.34 796.00 226.00 Z"/>
</g>
<g fill="None" fill-opacity="0.0" stroke="#F8FBFD" stroke-opacity="1.00" stroke-width="0.3"><path d="
M 507.00 209.00 
C 507.50 207.24 509.72 208.28 511.00 208.00
C 511.00 203.33 511.00 198.67 511.00 194.00
C 510.03 193.84 508.96 194.20 508.00 194.00
C 503.43 193.87 500.39 197.44 497.00 200.00
C 499.44 190.35 487.53 195.08 482.00 194.00
C 482.00 209.67 482.00 225.33 482.00 241.00
C 487.00 241.00 492.00 241.00 497.00 241.00
C 498.61 228.08 491.17 212.00 507.00 209.00 Z"/>
</g>
<g fill="None" fill-opacity="0.0" stroke="#FAFCFD" stroke-opacity="1.00" stroke-width="0.3"><path d="
M 547.00 194.00 
C 541.67 194.00 536.33 194.00 531.00 194.00
C 535.85 209.83 542.64 225.07 547.00 241.00
C 553.33 241.00 559.67 241.00 566.00 241.00
C 570.12 224.94 576.91 209.77 582.00 194.00
C 576.67 194.00 571.33 194.00 566.00 194.00
C 563.97 205.30 559.25 215.82 557.00 227.00
C 553.17 216.59 549.08 205.26 547.00 194.00 Z"/>
</g>
<g fill="None" fill-opacity="0.0" stroke="#F6FAFC" stroke-opacity="1.00" stroke-width="0.3"><path d="
M 620.00 194.00 
C 615.00 194.00 610.00 194.00 605.00 194.00
C 605.00 209.67 605.00 225.33 605.00 241.00
C 610.00 241.00 615.00 241.00 620.00 241.00
C 620.00 225.33 620.00 209.67 620.00 194.00 Z"/>
</g>
<g fill="None" fill-opacity="0.0" stroke="#F59F39" stroke-opacity="0.92" stroke-width="0.3"><path d="
M 24.00 220.00 
C 23.74 223.60 23.97 228.61 25.00 232.00
C 31.99 246.77 56.76 251.59 71.00 254.00
C 70.23 253.60 69.36 252.42 68.00 253.00
C 68.58 246.40 66.79 239.17 69.00 233.00
C 68.76 232.93 68.34 232.15 68.00 232.00
C 62.55 229.58 57.83 228.63 52.75 225.25 C 47.68 221.87 45.38 220.27 41.23 214.77 C 37.08 209.27 43.27 201.87 43.00 197.00
C 42.75 196.74 42.24 196.26 42.00 196.00
C 37.54 196.30 34.50 203.18 30.75 205.75 C 27.00 208.33 24.85 215.91 24.00 220.00 Z"/>
</g>
<g fill="None" fill-opacity="0.0" stroke="#5A8DBF" stroke-opacity="0.47" stroke-width="0.3"><path d="
M 156.00 200.00 
C 155.50 200.98 155.47 202.83 155.00 204.00
C 156.84 201.48 159.08 198.68 161.00 196.00
C 159.89 197.11 156.72 198.58 156.00 200.00 Z"/>
</g>
<g fill="None" fill-opacity="0.0" stroke="#85B8D9" stroke-opacity="1.00" stroke-width="0.3"><path d="
M 371.00 198.00 
C 375.34 200.31 381.84 198.35 387.00 199.00
C 387.89 198.00 386.01 196.32 386.00 196.00
C 384.25 200.58 375.26 196.73 371.00 198.00 Z"/>
</g>
<g fill="None" fill-opacity="0.0" stroke="#000000" stroke-opacity="0.00" stroke-width="0.3"><path d="
M 68.00 232.00 
C 65.08 225.79 59.32 220.46 55.25 214.75 C 51.19 209.03 47.82 202.01 43.00 197.00
C 43.27 201.87 37.08 209.27 41.23 214.77 C 45.38 220.27 47.68 221.87 52.75 225.25 C 57.83 228.63 62.55 229.58 68.00 232.00 Z"/>
</g>
<g fill="None" fill-opacity="0.0" stroke="#3287BE" stroke-opacity="1.00" stroke-width="0.3"><path d="
M 443.00 213.00 
C 443.71 202.18 424.28 202.20 425.00 213.00
C 431.00 213.00 437.00 213.00 443.00 213.00 Z"/>
</g>
<g fill="None" fill-opacity="0.0" stroke="#3287BE" stroke-opacity="1.00" stroke-width="0.3"><path d="
M 745.00 213.00 
C 745.71 202.18 726.28 202.20 727.00 213.00
C 733.00 213.00 739.00 213.00 745.00 213.00 Z"/>
</g>
<g fill="None" fill-opacity="0.0" stroke="#F9BD65" stroke-opacity="0.42" stroke-width="0.3"><path d="
M 25.00 232.00 
C 23.97 228.61 23.74 223.60 24.00 220.00
C 23.11 224.30 23.02 227.82 25.00 232.00 Z"/>
</g>
<g fill="None" fill-opacity="0.0" stroke="#EC837F" stroke-opacity="0.33" stroke-width="0.3"><path d="
M 213.00 225.00 
C 213.99 225.12 215.01 224.90 216.00 225.00
C 213.93 228.94 208.92 229.92 207.00 234.00
C 212.79 230.40 217.68 226.49 222.00 221.00
C 218.72 221.35 215.80 224.09 213.00 225.00 Z"/>
</g>
<g fill="None" fill-opacity="0.0" stroke="#E5513E" stroke-opacity="0.86" stroke-width="0.3"><path d="
M 176.00 234.00 
C 181.02 236.20 175.10 245.61 179.00 248.00
C 189.08 244.23 198.08 240.12 207.00 234.00
C 208.92 229.92 213.93 228.94 216.00 225.00
C 215.01 224.90 213.99 225.12 213.00 225.00
C 201.19 228.83 188.25 232.05 176.00 234.00 Z"/>
</g>
<g fill="None" fill-opacity="0.0" stroke="#88BADA" stroke-opacity="1.00" stroke-width="0.3"><path d="
M 782.00 226.00 
C 786.67 226.00 791.33 226.00 796.00 226.00
C 794.06 224.80 783.61 223.51 782.00 226.00 Z"/>
</g>
<g fill="None" fill-opacity="0.0" stroke="#EE8635" stroke-opacity="0.98" stroke-width="0.3"><path d="
M 71.00 254.00 
C 76.92 255.00 83.00 256.33 89.00 257.00
C 96.93 257.89 104.89 257.27 113.00 258.00
C 110.06 257.72 105.65 256.14 102.00 257.00
C 102.00 251.00 102.00 245.00 102.00 239.00
C 91.16 238.05 79.38 235.94 69.00 233.00
C 66.79 239.17 68.58 246.40 68.00 253.00
C 69.36 252.42 70.23 253.60 71.00 254.00 Z"/>
</g>
<g fill="None" fill-opacity="0.0" stroke="#E86238" stroke-opacity="0.93" stroke-width="0.3"><path d="
M 149.00 238.00 
C 145.02 239.16 141.81 240.00 137.00 240.00
C 138.43 244.70 134.21 254.89 139.00 257.00
C 152.98 254.73 166.09 252.83 179.00 248.00
C 175.10 245.61 181.02 236.20 176.00 234.00
C 167.06 235.42 157.96 236.57 149.00 238.00 Z"/>
</g>
<g fill="None" fill-opacity="0.0" stroke="#EC8E69" stroke-opacity="0.40" stroke-width="0.3"><path d="
M 130.00 239.00 
C 130.00 239.00 129.50 239.00 129.00 239.00
C 128.75 239.25 129.00 240.00 129.00 240.00
C 131.67 240.00 134.33 240.00 137.00 240.00
C 141.81 240.00 145.02 239.16 149.00 238.00
C 142.76 238.99 136.53 239.00 130.00 239.00 Z"/>
</g>
<g fill="None" fill-opacity="0.0" stroke="#EB7433" stroke-opacity="0.99" stroke-width="0.3"><path d="
M 113.00 258.00 
C 117.58 257.58 122.40 258.00 127.00 258.00
C 131.17 258.00 135.47 257.57 139.00 257.00
C 134.21 254.89 138.43 244.70 137.00 240.00
C 134.33 240.00 131.67 240.00 129.00 240.00
C 122.95 240.00 116.30 239.51 111.00 239.00
C 108.04 239.00 104.95 239.26 102.00 239.00
C 102.00 245.00 102.00 251.00 102.00 257.00
C 105.65 256.14 110.06 257.72 113.00 258.00 Z"/>
</g>
<g fill="None" fill-opacity="0.0" stroke="#876567" stroke-opacity="1.00" stroke-width="0.3"><path d="
M 129.00 240.00 
C 129.00 240.00 128.75 239.25 129.00 239.00
C 123.00 239.00 117.00 239.00 111.00 239.00
C 116.30 239.51 122.95 240.00 129.00 240.00 Z"/>
</g>
<g fill="None" fill-opacity="0.0" stroke="#9BC5E0" stroke-opacity="1.00" stroke-width="0.3"><path d="
M 439.00 241.00 
C 436.19 241.29 432.82 241.26 430.00 241.00
C 433.21 241.66 435.73 241.73 439.00 241.00 Z"/>
</g>
<g fill="None" fill-opacity="0.0" stroke="#9BC5E0" stroke-opacity="1.00" stroke-width="0.3"><path d="
M 741.00 241.00 
C 738.19 241.29 734.82 241.26 732.00 241.00
C 735.21 241.66 737.73 241.73 741.00 241.00 Z"/>
</g>
<g fill="None" fill-opacity="0.0" stroke="#2D599C" stroke-opacity="0.87" stroke-width="0.3"><path d="
M 113.00 259.00 
C 113.22 258.64 113.00 258.00 113.00 258.00
C 104.89 257.27 96.93 257.89 89.00 257.00
C 92.85 262.30 97.19 269.02 103.00 272.00
C 106.29 267.63 110.10 263.66 113.00 259.00 Z"/>
</g>
<g fill="None" fill-opacity="0.0" stroke="#F6C7AD" stroke-opacity="0.13" stroke-width="0.3"><path d="
M 113.00 259.00 
C 117.76 259.43 122.96 258.39 127.00 258.00
C 122.40 258.00 117.58 257.58 113.00 258.00
C 113.00 258.00 113.22 258.64 113.00 259.00 Z"/>
</g>
<g fill="None" fill-opacity="0.0" stroke="#2080BB" stroke-opacity="0.25" stroke-width="0.3"><path d="
M 242.00 276.00 
L 894.00 276.00
C 851.49 274.11 807.39 275.07 764.00 275.00 C 720.61 274.93 676.42 274.75 633.00 275.00 C 589.58 275.25 546.40 274.24 503.00 275.00 C 459.60 275.76 415.30 273.25 372.00 275.00 C 328.70 276.75 285.07 271.06 242.00 275.00
C 242.00 275.00 242.00 275.50 242.00 276.00 Z"/>
</g>
<g fill="#000000" fill-opacity="0.00" stroke="None">
<path d="
M 0.00 88.00 
C 0.50 88.00 1.00 88.00 1.00 88.00
C 13.27 92.43 27.88 100.79 31.00 113.00
C 32.22 117.79 34.38 122.33 36.00 127.00
C 41.12 136.69 49.42 143.74 57.00 152.00
C 62.36 155.98 67.85 159.59 74.00 162.00
C 77.55 163.39 81.65 165.03 85.00 166.00
C 88.88 167.13 90.02 167.96 91.92 171.08 C 93.83 174.20 93.78 178.14 96.00 180.00
C 99.68 179.20 104.84 181.49 108.00 179.00
C 111.23 175.44 110.52 169.49 115.00 167.00
C 116.12 166.38 116.40 166.14 118.00 166.00
C 121.48 165.12 125.35 163.43 129.00 162.00
C 134.21 159.96 139.42 157.41 144.00 154.00
C 151.76 148.23 160.77 140.42 165.00 132.00
C 165.26 130.59 165.54 130.98 166.00 130.00
C 166.76 128.41 166.75 127.32 168.00 126.00
C 168.25 125.74 168.89 125.26 169.00 125.00
C 171.23 118.21 173.12 111.19 174.00 104.00
C 184.14 99.79 192.83 92.01 203.00 88.00
C 205.89 89.72 203.11 95.80 204.00 99.00 C 204.89 102.20 203.48 108.34 203.00 111.00
C 202.51 118.15 199.58 125.41 197.00 132.00
C 194.15 139.25 190.39 146.37 187.00 153.00
C 182.23 166.95 171.60 185.40 161.00 196.00
C 159.08 198.68 156.84 201.48 155.00 204.00
C 152.48 210.27 147.13 216.41 142.75 221.75 C 138.37 227.09 135.24 234.08 130.00 239.00
C 136.53 239.00 142.76 238.99 149.00 238.00
C 157.96 236.57 167.06 235.42 176.00 234.00
C 188.25 232.05 201.19 228.83 213.00 225.00
C 215.80 224.09 218.72 221.35 222.00 221.00
C 217.68 226.49 212.79 230.40 207.00 234.00
C 198.08 240.12 189.08 244.23 179.00 248.00
C 166.09 252.83 152.98 254.73 139.00 257.00
C 135.47 257.57 131.17 258.00 127.00 258.00
C 122.96 258.39 117.76 259.43 113.00 259.00
C 110.10 263.66 106.29 267.63 103.00 272.00
C 97.19 269.02 92.85 262.30 89.00 257.00
C 83.00 256.33 76.92 255.00 71.00 254.00
C 56.76 251.59 31.99 246.77 25.00 232.00
C 23.02 227.82 23.11 224.30 24.00 220.00
C 24.85 215.91 27.00 208.33 30.75 205.75 C 34.50 203.18 37.54 196.30 42.00 196.00
C 41.13 195.07 41.53 193.93 41.00 193.00
C 26.90 168.38 3.07 142.35 1.00 112.00
C 0.99 111.94 0.00 112.00 0.00 112.00
L 0.00 276.00
L 242.00 276.00
C 242.00 275.50 242.00 275.00 242.00 275.00
C 242.00 234.33 242.00 193.67 242.00 153.00
C 486.94 152.26 731.21 154.14 976.00 154.00
C 949.05 194.76 921.53 235.04 895.00 276.00
L 996.00 276.00
L 996.00 83.00
C 989.39 125.91 940.13 125.90 905.00 123.00
C 905.00 89.67 905.00 56.33 905.00 23.00
C 940.11 20.11 989.44 20.15 996.00 63.00
L 996.00 0.00
L 115.00 0.00
C 115.00 0.50 115.00 1.00 115.00 1.00
C 115.50 1.00 116.00 1.00 116.00 1.00
C 119.82 0.74 123.85 2.12 127.00 3.00
C 143.47 3.87 162.79 18.34 174.00 30.00
C 181.82 38.13 189.13 47.26 194.00 57.00
C 197.36 63.71 203.38 74.10 194.92 77.92 C 186.47 81.75 183.16 86.44 175.00 90.00
C 175.71 86.39 173.77 83.51 174.00 80.00
C 173.32 77.06 172.00 73.21 171.00 70.00
C 170.55 68.56 170.30 67.54 170.00 66.00
C 165.61 53.42 152.32 40.23 141.00 33.00
C 129.30 27.95 119.23 22.72 106.00 22.00
C 103.08 21.84 99.92 21.80 97.00 22.00
C 81.90 23.03 66.55 29.03 55.00 39.00
C 49.52 43.73 42.55 49.63 39.00 56.00
C 37.00 61.42 33.95 66.52 32.00 72.00
C 29.98 77.68 29.02 83.76 29.00 90.00
C 20.41 86.00 12.74 79.76 4.00 76.00
C 3.00 69.57 6.86 64.55 9.00 59.00
C 11.73 52.67 15.88 43.99 22.00 40.00
C 21.77 39.64 22.00 39.00 22.00 39.00
C 24.27 35.36 27.03 32.97 30.00 30.00
C 40.79 17.38 55.86 9.85 71.00 5.00
C 73.10 4.33 74.86 3.60 77.00 3.00
C 80.19 2.11 84.16 0.74 88.00 1.00
C 88.50 1.03 89.00 1.00 89.00 1.00
C 89.25 0.75 89.00 0.00 89.00 0.00
L 0.00 0.00
L 0.00 88.00
M 499.00 52.00 
C 489.67 52.00 480.33 52.00 471.00 52.00
C 473.01 33.47 443.15 44.76 452.26 54.74 C 461.36 64.73 472.51 63.03 483.23 68.77 C 493.95 74.51 502.10 84.50 500.00 97.00 C 497.90 109.50 491.13 117.31 479.78 121.78 C 468.42 126.24 451.83 124.82 440.92 120.08 C 430.02 115.33 423.90 104.17 423.00 93.00
C 433.87 94.19 448.48 88.64 453.25 99.75 C 458.03 110.85 477.75 100.73 472.22 91.78 C 466.69 82.83 455.25 83.07 446.78 79.22 C 438.31 75.38 429.40 72.40 426.08 62.92 C 422.75 53.45 422.52 41.21 429.30 33.30 C 436.09 25.40 445.04 22.33 455.07 21.07 C 465.10 19.82 477.06 22.26 485.70 27.31 C 494.33 32.35 498.13 42.55 499.00 52.00
M 308.00 23.00 
C 308.00 29.67 308.00 36.33 308.00 43.00
C 295.67 43.00 283.33 43.00 271.00 43.00
C 271.00 49.33 271.00 55.67 271.00 62.00
C 281.67 62.00 292.33 62.00 303.00 62.00
C 303.00 68.67 303.00 75.33 303.00 82.00
C 292.33 82.00 281.67 82.00 271.00 82.00
C 271.00 89.00 271.00 96.00 271.00 103.00
C 283.33 103.00 295.67 103.00 308.00 103.00
C 308.00 109.67 308.00 116.33 308.00 123.00
C 287.00 123.00 266.00 123.00 245.00 123.00
C 245.00 89.67 245.00 56.33 245.00 23.00
C 266.00 23.00 287.00 23.00 308.00 23.00
M 417.00 123.00 
C 408.00 123.00 399.00 123.00 390.00 123.00
C 388.77 117.22 385.73 111.95 385.00 106.00
C 372.67 106.00 360.33 106.00 348.00 106.00
C 346.77 111.78 343.73 117.05 343.00 123.00
C 334.00 123.00 325.00 123.00 316.00 123.00
C 317.65 115.07 321.46 108.55 323.78 100.78 C 326.09 93.00 329.41 86.77 331.78 78.78 C 334.14 70.78 337.45 65.40 339.78 56.78 C 342.10 48.15 345.63 44.86 347.78 34.78 C 349.93 24.69 354.71 22.81 366.00 23.00 C 377.29 23.19 382.87 23.64 384.98 34.02 C 387.08 44.41 390.80 47.21 392.98 56.02 C 395.15 64.84 398.71 69.90 400.98 78.02 C 403.24 86.15 406.88 92.07 408.98 100.02 C 411.07 107.98 415.59 114.87 417.00 123.00
M 536.00 23.00 
C 540.35 36.39 548.06 48.75 553.00 62.00
C 561.15 51.35 566.26 35.94 572.00 23.00
C 581.67 23.00 591.33 23.00 601.00 23.00
C 595.22 32.91 592.23 43.05 586.08 53.08 C 579.92 63.10 577.05 72.12 570.69 82.69 C 564.34 93.27 565.79 110.02 566.00 123.00
C 557.67 123.00 549.33 123.00 541.00 123.00
C 540.59 110.36 543.21 93.43 537.08 82.92 C 530.95 72.41 527.58 63.38 521.70 53.30 C 515.82 43.22 511.86 33.38 507.00 23.00
C 516.67 23.00 526.33 23.00 536.00 23.00
M 706.00 23.00 
C 706.00 29.67 706.00 36.33 706.00 43.00
C 692.67 43.00 679.33 43.00 666.00 43.00
C 666.00 49.67 666.00 56.33 666.00 63.00
C 676.00 63.00 686.00 63.00 696.00 63.00
C 696.00 69.67 696.00 76.33 696.00 83.00
C 686.00 83.00 676.00 83.00 666.00 83.00
C 666.00 96.33 666.00 109.67 666.00 123.00
C 657.33 123.00 648.67 123.00 640.00 123.00
C 640.00 89.67 640.00 56.33 640.00 23.00
C 662.00 23.00 684.00 23.00 706.00 23.00
M 744.00 23.00 
C 744.00 56.33 744.00 89.67 744.00 123.00
C 735.33 123.00 726.67 123.00 718.00 123.00
C 718.00 89.67 718.00 56.33 718.00 23.00
C 726.67 23.00 735.33 23.00 744.00 23.00
M 823.00 23.00 
C 823.00 29.67 823.00 36.33 823.00 43.00
C 810.67 43.00 798.33 43.00 786.00 43.00
C 786.00 49.33 786.00 55.67 786.00 62.00
C 796.67 62.00 807.33 62.00 818.00 62.00
C 818.00 68.67 818.00 75.33 818.00 82.00
C 807.33 82.00 796.67 82.00 786.00 82.00
C 786.00 89.00 786.00 96.00 786.00 103.00
C 798.33 103.00 810.67 103.00 823.00 103.00
C 823.00 109.67 823.00 116.33 823.00 123.00
C 802.00 123.00 781.00 123.00 760.00 123.00
C 760.00 89.67 760.00 56.33 760.00 23.00
C 781.00 23.00 802.00 23.00 823.00 23.00
M 863.00 23.00 
C 863.00 50.00 863.00 77.00 863.00 104.00
C 873.67 104.00 884.33 104.00 895.00 104.00
C 895.00 110.33 895.00 116.67 895.00 123.00
C 875.67 123.00 856.33 123.00 837.00 123.00
C 837.00 89.67 837.00 56.33 837.00 23.00
C 845.67 23.00 854.33 23.00 863.00 23.00
M 109.00 90.00 
C 119.52 92.61 128.54 102.02 130.00 113.00
C 130.58 117.33 129.89 122.41 129.00 126.00
C 121.97 154.40 79.18 152.89 73.00 125.00
C 72.04 120.68 72.12 116.25 73.00 112.00
C 75.35 100.67 82.56 92.53 94.00 90.00
C 98.78 88.94 104.27 88.83 109.00 90.00 Z"/>
</g>
<g fill="#F08F7C" fill-opacity="0.93" stroke="None">
<path d="
M 89.00 1.00 
C 97.67 1.00 106.33 1.00 115.00 1.00
C 115.00 1.00 115.00 0.50 115.00 0.00
L 89.00 0.00
C 89.00 0.00 89.25 0.75 89.00 1.00 Z"/>
</g>
<g fill="#F6AD6C" fill-opacity="0.43" stroke="None">
<path d="
M 77.00 3.00 
C 77.75 3.05 78.81 3.99 79.00 4.00
C 81.97 2.84 85.41 2.13 88.00 1.00
C 84.16 0.74 80.19 2.11 77.00 3.00 Z"/>
</g>
<g fill="#E02D33" fill-opacity="0.98" stroke="None">
<path d="
M 79.00 4.00 
C 77.29 4.67 75.68 5.24 74.00 6.00
C 56.07 14.07 47.44 28.84 39.00 45.00
C 39.68 44.84 43.30 46.40 45.00 46.00
C 48.06 43.05 51.53 41.08 55.00 39.00
C 66.55 29.03 81.90 23.03 97.00 22.00
C 100.19 21.43 102.89 21.49 106.00 22.00
C 119.23 22.72 129.30 27.95 141.00 33.00
C 147.28 35.71 153.74 41.23 159.00 46.00
C 161.08 46.39 163.84 44.95 165.00 45.00
C 154.73 27.10 144.61 10.70 124.00 3.00
C 121.23 2.77 118.23 1.98 116.00 1.00
C 116.00 1.00 115.50 1.00 115.00 1.00
C 106.33 1.00 97.67 1.00 89.00 1.00
C 89.00 1.00 88.50 1.03 88.00 1.00
C 85.41 2.13 81.97 2.84 79.00 4.00 Z"/>
</g>
<g fill="#F8B77A" fill-opacity="0.34" stroke="None">
<path d="
M 124.00 3.00 
C 124.99 3.08 126.01 2.95 127.00 3.00
C 123.85 2.12 119.82 0.74 116.00 1.00
C 118.23 1.98 121.23 2.77 124.00 3.00 Z"/>
</g>
<g fill="#F6A646" fill-opacity="0.69" stroke="None">
<path d="
M 71.00 5.00 
C 71.26 5.00 73.82 6.03 74.00 6.00
C 75.68 5.24 77.29 4.67 79.00 4.00
C 78.81 3.99 77.75 3.05 77.00 3.00
C 74.86 3.60 73.10 4.33 71.00 5.00 Z"/>
</g>
<g fill="#F49C38" fill-opacity="0.93" stroke="None">
<path d="
M 165.00 45.00 
C 165.67 45.03 166.29 45.85 167.00 46.00
C 172.57 47.19 179.61 44.23 185.00 46.00
C 181.06 41.16 176.30 33.69 174.00 30.00
C 162.79 18.34 143.47 3.87 127.00 3.00
C 126.01 2.95 124.99 3.08 124.00 3.00
C 144.61 10.70 154.73 27.10 165.00 45.00 Z"/>
</g>
<g fill="#F39737" fill-opacity="0.94" stroke="None">
<path d="
M 30.00 30.00 
C 27.47 32.96 25.16 36.94 22.00 39.00
C 22.00 39.00 21.77 39.64 22.00 40.00
C 23.26 41.98 16.50 47.74 15.00 50.00
C 17.22 48.90 33.66 48.98 35.00 51.00
C 35.83 48.23 37.91 47.09 39.00 45.00
C 47.44 28.84 56.07 14.07 74.00 6.00
C 73.82 6.03 71.26 5.00 71.00 5.00
C 55.86 9.85 40.79 17.38 30.00 30.00 Z"/>
</g>
<g fill="#EE8F92" fill-opacity="0.25" stroke="None">
<path d="
M 97.00 22.00 
C 99.92 21.80 103.08 21.84 106.00 22.00
C 102.89 21.49 100.19 21.43 97.00 22.00 Z"/>
</g>
<g fill="#ED7932" fill-opacity="0.96" stroke="None">
<path d="
M 499.00 52.00 
C 498.13 42.55 494.33 32.35 485.70 27.31 C 477.06 22.26 465.10 19.82 455.07 21.07 C 445.04 22.33 436.09 25.40 429.30 33.30 C 422.52 41.21 422.75 53.45 426.08 62.92 C 429.40 72.40 438.31 75.38 446.78 79.22 C 455.25 83.07 466.69 82.83 472.22 91.78 C 477.75 100.73 458.03 110.85 453.25 99.75 C 448.48 88.64 433.87 94.19 423.00 93.00
C 423.90 104.17 430.02 115.33 440.92 120.08 C 451.83 124.82 468.42 126.24 479.78 121.78 C 491.13 117.31 497.90 109.50 500.00 97.00 C 502.10 84.50 493.95 74.51 483.23 68.77 C 472.51 63.03 461.36 64.73 452.26 54.74 C 443.15 44.76 473.01 33.47 471.00 52.00
C 480.33 52.00 489.67 52.00 499.00 52.00 Z"/>
</g>
<g fill="#EC7832" fill-opacity="0.96" stroke="None">
<path d="
M 308.00 23.00 
C 287.00 23.00 266.00 23.00 245.00 23.00
C 245.00 56.33 245.00 89.67 245.00 123.00
C 266.00 123.00 287.00 123.00 308.00 123.00
C 308.00 116.33 308.00 109.67 308.00 103.00
C 295.67 103.00 283.33 103.00 271.00 103.00
C 271.00 96.00 271.00 89.00 271.00 82.00
C 281.67 82.00 292.33 82.00 303.00 82.00
C 303.00 75.33 303.00 68.67 303.00 62.00
C 292.33 62.00 281.67 62.00 271.00 62.00
C 271.00 55.67 271.00 49.33 271.00 43.00
C 283.33 43.00 295.67 43.00 308.00 43.00
C 308.00 36.33 308.00 29.67 308.00 23.00 Z"/>
</g>
<g fill="#ED7932" fill-opacity="0.96" stroke="None">
<path d="
M 417.00 123.00 
C 415.59 114.87 411.07 107.98 408.98 100.02 C 406.88 92.07 403.24 86.15 400.98 78.02 C 398.71 69.90 395.15 64.84 392.98 56.02 C 390.80 47.21 387.08 44.41 384.98 34.02 C 382.87 23.64 377.29 23.19 366.00 23.00 C 354.71 22.81 349.93 24.69 347.78 34.78 C 345.63 44.86 342.10 48.15 339.78 56.78 C 337.45 65.40 334.14 70.78 331.78 78.78 C 329.41 86.77 326.09 93.00 323.78 100.78 C 321.46 108.55 317.65 115.07 316.00 123.00
C 325.00 123.00 334.00 123.00 343.00 123.00
C 343.73 117.05 346.77 111.78 348.00 106.00
C 360.33 106.00 372.67 106.00 385.00 106.00
C 385.73 111.95 388.77 117.22 390.00 123.00
C 399.00 123.00 408.00 123.00 417.00 123.00
M 367.00 52.00 
C 369.81 63.55 374.17 74.71 378.00 86.00
C 370.33 86.00 362.67 86.00 355.00 86.00
C 359.34 74.89 362.23 62.66 367.00 52.00 Z"/>
</g>
<g fill="#ED7931" fill-opacity="0.97" stroke="None">
<path d="
M 536.00 23.00 
C 526.33 23.00 516.67 23.00 507.00 23.00
C 511.86 33.38 515.82 43.22 521.70 53.30 C 527.58 63.38 530.95 72.41 537.08 82.92 C 543.21 93.43 540.59 110.36 541.00 123.00
C 549.33 123.00 557.67 123.00 566.00 123.00
C 565.79 110.02 564.34 93.27 570.69 82.69 C 577.05 72.12 579.92 63.10 586.08 53.08 C 592.23 43.05 595.22 32.91 601.00 23.00
C 591.33 23.00 581.67 23.00 572.00 23.00
C 566.26 35.94 561.15 51.35 553.00 62.00
C 548.06 48.75 540.35 36.39 536.00 23.00 Z"/>
</g>
<g fill="#EC7832" fill-opacity="0.96" stroke="None">
<path d="
M 706.00 23.00 
C 684.00 23.00 662.00 23.00 640.00 23.00
C 640.00 56.33 640.00 89.67 640.00 123.00
C 648.67 123.00 657.33 123.00 666.00 123.00
C 666.00 109.67 666.00 96.33 666.00 83.00
C 676.00 83.00 686.00 83.00 696.00 83.00
C 696.00 76.33 696.00 69.67 696.00 63.00
C 686.00 63.00 676.00 63.00 666.00 63.00
C 666.00 56.33 666.00 49.67 666.00 43.00
C 679.33 43.00 692.67 43.00 706.00 43.00
C 706.00 36.33 706.00 29.67 706.00 23.00 Z"/>
</g>
<g fill="#EC7832" fill-opacity="0.94" stroke="None">
<path d="
M 744.00 23.00 
C 735.33 23.00 726.67 23.00 718.00 23.00
C 718.00 56.33 718.00 89.67 718.00 123.00
C 726.67 123.00 735.33 123.00 744.00 123.00
C 744.00 89.67 744.00 56.33 744.00 23.00 Z"/>
</g>
<g fill="#EC7832" fill-opacity="0.96" stroke="None">
<path d="
M 823.00 23.00 
C 802.00 23.00 781.00 23.00 760.00 23.00
C 760.00 56.33 760.00 89.67 760.00 123.00
C 781.00 123.00 802.00 123.00 823.00 123.00
C 823.00 116.33 823.00 109.67 823.00 103.00
C 810.67 103.00 798.33 103.00 786.00 103.00
C 786.00 96.00 786.00 89.00 786.00 82.00
C 796.67 82.00 807.33 82.00 818.00 82.00
C 818.00 75.33 818.00 68.67 818.00 62.00
C 807.33 62.00 796.67 62.00 786.00 62.00
C 786.00 55.67 786.00 49.33 786.00 43.00
C 798.33 43.00 810.67 43.00 823.00 43.00
C 823.00 36.33 823.00 29.67 823.00 23.00 Z"/>
</g>
<g fill="#EC7832" fill-opacity="0.95" stroke="None">
<path d="
M 863.00 23.00 
C 854.33 23.00 845.67 23.00 837.00 23.00
C 837.00 56.33 837.00 89.67 837.00 123.00
C 856.33 123.00 875.67 123.00 895.00 123.00
C 895.00 116.67 895.00 110.33 895.00 104.00
C 884.33 104.00 873.67 104.00 863.00 104.00
C 863.00 77.00 863.00 50.00 863.00 23.00 Z"/>
</g>
<g fill="#EC7932" fill-opacity="0.96" stroke="None">
<path d="
M 996.00 83.00 
L 996.00 80.00
C 994.40 76.40 994.29 69.53 996.00 66.00
L 996.00 63.00
C 989.44 20.15 940.11 20.11 905.00 23.00
C 905.00 56.33 905.00 89.67 905.00 123.00
C 940.13 125.90 989.39 125.91 996.00 83.00
M 931.00 101.00 
C 931.00 82.00 931.00 63.00 931.00 44.00
C 951.34 41.33 969.32 50.35 970.00 72.00 C 970.68 93.65 952.33 105.65 931.00 101.00 Z"/>
</g>
<g fill="#F8C098" fill-opacity="0.20" stroke="None">
<path d="
M 22.00 39.00 
C 25.16 36.94 27.47 32.96 30.00 30.00
C 27.03 32.97 24.27 35.36 22.00 39.00 Z"/>
</g>
<g fill="#F4A058" fill-opacity="0.49" stroke="None">
<path d="
M 185.00 46.00 
C 187.94 49.61 191.30 53.30 194.00 57.00
C 189.13 47.26 181.82 38.13 174.00 30.00
C 176.30 33.69 181.06 41.16 185.00 46.00 Z"/>
</g>
<g fill="#EA6B5B" fill-opacity="0.46" stroke="None">
<path d="
M 170.00 66.00 
C 168.72 59.41 164.24 50.75 159.00 46.00
C 153.74 41.23 147.28 35.71 141.00 33.00
C 152.32 40.23 165.61 53.42 170.00 66.00 Z"/>
</g>
<g fill="#EA6759" fill-opacity="0.47" stroke="None">
<path d="
M 45.00 46.00 
C 41.83 49.04 40.39 52.23 39.00 56.00
C 42.55 49.63 49.52 43.73 55.00 39.00
C 51.53 41.08 48.06 43.05 45.00 46.00 Z"/>
</g>
<g fill="#F1944E" fill-opacity="0.51" stroke="None">
<path d="
M 9.00 59.00 
C 10.80 56.18 13.05 52.93 15.00 50.00
C 16.50 47.74 23.26 41.98 22.00 40.00
C 15.88 43.99 11.73 52.67 9.00 59.00 Z"/>
</g>
<g fill="#000000" fill-opacity="0.00" stroke="None">
<path d="
M 931.00 101.00 
C 952.33 105.65 970.68 93.65 970.00 72.00 C 969.32 50.35 951.34 41.33 931.00 44.00
C 931.00 63.00 931.00 82.00 931.00 101.00 Z"/>
</g>
<g fill="#E65A39" fill-opacity="0.90" stroke="None">
<path d="
M 35.00 51.00 
C 33.48 56.06 32.45 61.96 31.01 67.01 C 29.57 72.06 31.95 71.46 32.00 72.00
C 33.95 66.52 37.00 61.42 39.00 56.00
C 40.39 52.23 41.83 49.04 45.00 46.00
C 43.30 46.40 39.68 44.84 39.00 45.00
C 37.91 47.09 35.83 48.23 35.00 51.00 Z"/>
</g>
<g fill="#E55332" fill-opacity="0.97" stroke="None">
<path d="
M 159.00 46.00 
C 164.24 50.75 168.72 59.41 170.00 66.00
C 170.30 67.54 170.55 68.56 171.00 70.00
C 171.33 70.34 172.81 70.71 173.00 71.00
C 171.91 63.39 170.83 52.68 167.00 46.00
C 166.29 45.85 165.67 45.03 165.00 45.00
C 163.84 44.95 161.08 46.39 159.00 46.00 Z"/>
</g>
<g fill="#EE8236" fill-opacity="0.96" stroke="None">
<path d="
M 173.00 71.00 
C 173.43 74.01 173.65 76.85 174.00 80.00
C 173.77 83.51 175.71 86.39 175.00 90.00
C 183.16 86.44 186.47 81.75 194.92 77.92 C 203.38 74.10 197.36 63.71 194.00 57.00
C 191.30 53.30 187.94 49.61 185.00 46.00
C 179.61 44.23 172.57 47.19 167.00 46.00
C 170.83 52.68 171.91 63.39 173.00 71.00 Z"/>
</g>
<g fill="#ED7D37" fill-opacity="0.95" stroke="None">
<path d="
M 9.00 59.00 
C 6.86 64.55 3.00 69.57 4.00 76.00
C 12.74 79.76 20.41 86.00 29.00 90.00
C 29.02 83.76 29.98 77.68 32.00 72.00
C 31.95 71.46 29.57 72.06 31.01 67.01 C 32.45 61.96 33.48 56.06 35.00 51.00
C 33.66 48.98 17.22 48.90 15.00 50.00
C 13.05 52.93 10.80 56.18 9.00 59.00 Z"/>
</g>
<g fill="#000000" fill-opacity="0.00" stroke="None">
<path d="
M 367.00 52.00 
C 362.23 62.66 359.34 74.89 355.00 86.00
C 362.67 86.00 370.33 86.00 378.00 86.00
C 374.17 74.71 369.81 63.55 367.00 52.00 Z"/>
</g>
<g fill="#EC7931" fill-opacity="0.66" stroke="None">
<path d="
M 996.00 80.00 
L 996.00 66.00
C 994.29 69.53 994.40 76.40 996.00 80.00 Z"/>
</g>
<g fill="#F09269" fill-opacity="0.40" stroke="None">
<path d="
M 174.00 80.00 
C 173.65 76.85 173.43 74.01 173.00 71.00
C 172.81 70.71 171.33 70.34 171.00 70.00
C 172.00 73.21 173.32 77.06 174.00 80.00 Z"/>
</g>
<g fill="#4C9ECC" fill-opacity="0.95" stroke="None">
<path d="
M 0.00 100.00 
C 0.95 99.63 1.72 98.98 2.00 98.00
C 1.27 94.85 0.88 91.36 1.00 88.00
C 1.00 88.00 0.50 88.00 0.00 88.00
L 0.00 100.00 Z"/>
</g>
<g fill="#1E4A96" fill-opacity="0.96" stroke="None">
<path d="
M 2.00 98.00 
C 4.66 109.45 9.66 120.17 16.00 130.00
C 15.95 123.34 28.52 118.62 31.00 113.00
C 27.88 100.79 13.27 92.43 1.00 88.00
C 0.88 91.36 1.27 94.85 2.00 98.00 Z"/>
</g>
<g fill="#1D4F99" fill-opacity="0.96" stroke="None">
<path d="
M 169.00 125.00 
C 168.88 125.35 168.29 125.78 168.00 126.00
C 166.75 127.32 166.76 128.41 166.00 130.00
C 166.88 128.93 168.22 128.08 169.00 127.00
C 171.45 131.27 176.82 138.89 182.00 138.00
C 188.59 135.02 191.27 123.88 194.92 117.92 C 198.58 111.97 201.87 99.68 203.00 93.00
C 203.00 91.33 203.00 89.67 203.00 88.00
C 192.83 92.01 184.14 99.79 174.00 104.00
C 173.12 111.19 171.23 118.21 169.00 125.00 Z"/>
</g>
<g fill="#6EB6D9" fill-opacity="0.38" stroke="None">
<path d="
M 203.00 93.00 
C 203.00 98.95 203.40 105.06 203.00 111.00
C 203.48 108.34 204.89 102.20 204.00 99.00 C 203.11 95.80 205.89 89.72 203.00 88.00
C 203.00 89.67 203.00 91.33 203.00 93.00 Z"/>
</g>
<g fill="#518AC1" fill-opacity="0.50" stroke="None">
<path d="
M 94.00 90.00 
C 98.59 89.53 104.42 89.43 109.00 90.00
C 104.27 88.83 98.78 88.94 94.00 90.00 Z"/>
</g>
<g fill="#2563A8" fill-opacity="0.95" stroke="None">
<path d="
M 73.00 112.00 
C 72.86 113.98 73.00 116.02 73.00 118.00
C 75.00 117.05 76.74 119.74 77.00 121.00
C 77.00 119.34 76.92 117.66 77.00 116.00
C 77.09 114.16 77.62 113.27 78.00 112.00
C 81.03 101.97 86.58 96.16 97.00 94.00
C 101.64 93.04 105.25 92.90 110.00 95.00
C 112.07 95.92 113.94 97.08 116.00 98.00
C 103.96 107.07 89.28 112.81 77.00 122.00
C 76.99 123.00 77.01 124.00 77.00 125.00
C 92.27 116.66 111.52 121.06 129.00 120.00
C 129.03 117.95 130.04 114.21 130.00 113.00
C 128.54 102.02 119.52 92.61 109.00 90.00
C 104.42 89.43 98.59 89.53 94.00 90.00
C 82.56 92.53 75.35 100.67 73.00 112.00 Z"/>
</g>
<g fill="#6795C4" fill-opacity="1.00" stroke="None">
<path d="
M 97.00 94.00 
C 99.77 93.75 104.03 93.39 106.00 95.00
C 96.62 100.67 87.02 105.74 78.00 112.00
C 77.62 113.27 77.09 114.16 77.00 116.00
C 78.82 110.92 90.37 110.37 93.75 105.75 C 97.12 101.12 106.75 99.91 110.00 95.00
C 105.25 92.90 101.64 93.04 97.00 94.00 Z"/>
</g>
<g fill="#2588C1" fill-opacity="0.95" stroke="None">
<path d="
M 182.00 138.00 
C 185.02 138.48 189.29 139.72 193.00 139.00
C 194.14 136.36 195.66 134.28 197.00 132.00
C 199.58 125.41 202.51 118.15 203.00 111.00
C 203.40 105.06 203.00 98.95 203.00 93.00
C 201.87 99.68 198.58 111.97 194.92 117.92 C 191.27 123.88 188.59 135.02 182.00 138.00 Z"/>
</g>
<g fill="#88ADD2" fill-opacity="1.00" stroke="None">
<path d="
M 78.00 112.00 
C 87.02 105.74 96.62 100.67 106.00 95.00
C 104.03 93.39 99.77 93.75 97.00 94.00
C 86.58 96.16 81.03 101.97 78.00 112.00 Z"/>
</g>
<g fill="#4A7FB8" fill-opacity="1.00" stroke="None">
<path d="
M 77.00 116.00 
C 76.92 117.66 77.00 119.34 77.00 121.00
C 77.00 121.50 77.00 122.00 77.00 122.00
C 89.28 112.81 103.96 107.07 116.00 98.00
C 113.94 97.08 112.07 95.92 110.00 95.00
C 106.75 99.91 97.12 101.12 93.75 105.75 C 90.37 110.37 78.82 110.92 77.00 116.00 Z"/>
</g>
<g fill="#1B72B1" fill-opacity="0.98" stroke="None">
<path d="
M 0.00 100.00 
L 0.00 102.00
C 1.90 104.44 0.78 108.80 1.00 112.00
C 3.07 142.35 26.90 168.38 41.00 193.00
C 40.33 189.38 50.83 192.51 55.00 193.00 C 59.18 193.48 69.86 192.99 74.00 194.00 C 78.14 195.01 91.00 192.92 93.00 196.00
C 94.73 189.98 97.03 181.04 106.00 184.00
C 107.58 188.37 109.32 192.97 111.00 197.00
C 111.73 195.72 120.44 198.18 124.00 198.00 C 127.56 197.82 135.42 199.74 140.00 199.00 C 144.58 198.26 151.05 201.48 156.00 200.00
C 156.72 198.58 159.89 197.11 161.00 196.00
C 171.60 185.40 182.23 166.95 187.00 153.00
C 188.68 148.10 190.93 143.79 193.00 139.00
C 189.29 139.72 185.02 138.48 182.00 138.00
C 176.82 138.89 171.45 131.27 169.00 127.00
C 168.22 128.08 166.88 128.93 166.00 130.00
C 165.54 130.98 165.26 130.59 165.00 132.00
C 164.22 136.25 159.88 142.13 156.70 144.70 C 153.53 147.28 149.49 153.82 146.00 155.00
C 148.03 156.05 150.56 158.02 151.00 160.00
C 139.32 163.25 127.76 167.55 115.00 167.00
C 110.52 169.49 111.23 175.44 108.00 179.00
C 105.69 181.55 98.74 182.29 96.00 180.00
C 93.78 178.14 93.83 174.20 91.92 171.08 C 90.02 167.96 88.88 167.13 85.00 166.00
C 83.02 165.82 80.99 166.09 79.00 166.00
C 70.55 165.64 62.54 163.10 55.00 160.00
C 56.08 157.91 58.54 157.59 59.00 155.00
C 51.72 150.11 44.87 142.96 40.00 136.00
C 35.57 138.33 31.89 147.39 26.77 143.23 C 21.65 139.07 19.30 135.12 16.00 130.00
C 9.66 120.17 4.66 109.45 2.00 98.00
C 1.72 98.98 0.95 99.63 0.00 100.00 Z"/>
</g>
<g fill="#65AED5" fill-opacity="0.90" stroke="None">
<path d="
M 0.00 112.00 
C 0.00 112.00 0.99 111.94 1.00 112.00
C 0.78 108.80 1.90 104.44 0.00 102.00
L 0.00 112.00 Z"/>
</g>
<g fill="#6790C0" fill-opacity="0.39" stroke="None">
<path d="
M 73.00 125.00 
C 72.78 122.71 73.00 120.30 73.00 118.00
C 73.00 116.02 72.86 113.98 73.00 112.00
C 72.12 116.25 72.04 120.68 73.00 125.00 Z"/>
</g>
<g fill="#1A5AA0" fill-opacity="0.98" stroke="None">
<path d="
M 16.00 130.00 
C 19.30 135.12 21.65 139.07 26.77 143.23 C 31.89 147.39 35.57 138.33 40.00 136.00
C 37.92 133.03 37.13 130.26 36.00 127.00
C 34.38 122.33 32.22 117.79 31.00 113.00
C 28.52 118.62 15.95 123.34 16.00 130.00 Z"/>
</g>
<g fill="#4372B0" fill-opacity="0.55" stroke="None">
<path d="
M 129.00 120.00 
C 128.97 121.97 129.20 124.04 129.00 126.00
C 129.89 122.41 130.58 117.33 130.00 113.00
C 130.04 114.21 129.03 117.95 129.00 120.00 Z"/>
</g>
<g fill="#1F4E9A" fill-opacity="0.96" stroke="None">
<path d="
M 73.00 125.00 
C 79.18 152.89 121.97 154.40 129.00 126.00
C 129.20 124.04 128.97 121.97 129.00 120.00
C 111.52 121.06 92.27 116.66 77.00 125.00
C 77.01 124.00 76.99 123.00 77.00 122.00
C 77.00 122.00 77.00 121.50 77.00 121.00
C 76.74 119.74 75.00 117.05 73.00 118.00
C 73.00 120.30 72.78 122.71 73.00 125.00 Z"/>
</g>
<g fill="#80AACE" fill-opacity="0.31" stroke="None">
<path d="
M 168.00 126.00 
C 168.29 125.78 168.88 125.35 169.00 125.00
C 168.89 125.26 168.25 125.74 168.00 126.00 Z"/>
</g>
<g fill="#4D8EC0" fill-opacity="0.52" stroke="None">
<path d="
M 40.00 136.00 
C 44.87 142.96 51.72 150.11 59.00 155.00
C 58.94 154.35 57.40 152.44 57.00 152.00
C 49.42 143.74 41.12 136.69 36.00 127.00
C 37.13 130.26 37.92 133.03 40.00 136.00 Z"/>
</g>
<g fill="#4D90C3" fill-opacity="0.53" stroke="None">
<path d="
M 144.00 154.00 
C 143.34 154.00 146.25 155.13 146.00 155.00
C 149.49 153.82 153.53 147.28 156.70 144.70 C 159.88 142.13 164.22 136.25 165.00 132.00
C 160.77 140.42 151.76 148.23 144.00 154.00 Z"/>
</g>
<g fill="#4E97C8" fill-opacity="0.52" stroke="None">
<path d="
M 193.00 139.00 
C 190.93 143.79 188.68 148.10 187.00 153.00
C 190.39 146.37 194.15 139.25 197.00 132.00
C 195.66 134.28 194.14 136.36 193.00 139.00 Z"/>
</g>
<g fill="#3395C9" fill-opacity="0.87" stroke="None">
<path d="
M 59.00 155.00 
C 58.54 157.59 56.08 157.91 55.00 160.00
C 62.54 163.10 70.55 165.64 79.00 166.00
C 77.29 165.62 75.40 162.82 74.00 162.00
C 67.85 159.59 62.36 155.98 57.00 152.00
C 57.40 152.44 58.94 154.35 59.00 155.00 Z"/>
</g>
<g fill="#1F7EBA" fill-opacity="1.00" stroke="None">
<path d="
M 242.00 275.00 
C 285.07 271.06 328.70 276.75 372.00 275.00 C 415.30 273.25 459.60 275.76 503.00 275.00 C 546.40 274.24 589.58 275.25 633.00 275.00 C 676.42 274.75 720.61 274.93 764.00 275.00 C 807.39 275.07 851.49 274.11 894.00 276.00
L 895.00 276.00
C 921.53 235.04 949.05 194.76 976.00 154.00
C 731.21 154.14 486.94 152.26 242.00 153.00
C 242.00 193.67 242.00 234.33 242.00 275.00
M 614.00 173.00 
C 624.70 174.20 621.99 191.18 611.00 189.00 C 600.01 186.81 603.20 171.79 614.00 173.00
M 386.00 196.00 
C 386.01 196.32 387.89 198.00 387.00 199.00
C 381.84 198.35 375.34 200.31 371.00 198.00
C 368.52 196.30 361.67 187.14 358.25 195.25 C 354.82 203.36 365.96 203.63 370.02 205.98 C 374.09 208.32 381.87 209.47 384.75 214.25 C 387.64 219.03 388.52 227.35 385.08 232.08 C 381.63 236.80 376.99 240.57 370.99 240.99 C 364.99 241.41 355.98 241.74 350.92 238.08 C 345.87 234.41 342.14 229.42 343.00 223.00
C 348.00 223.00 353.00 223.00 358.00 223.00
C 356.62 235.41 377.07 228.87 370.74 221.26 C 364.42 213.64 356.43 217.20 349.31 211.69 C 342.18 206.19 340.56 195.94 345.77 188.77 C 350.98 181.60 360.80 180.23 369.00 181.00 C 377.20 181.77 385.01 187.60 386.00 196.00
M 439.00 241.00 
C 435.73 241.73 433.21 241.66 430.00 241.00
C 421.50 239.24 412.80 234.43 411.08 224.92 C 409.35 215.41 410.97 205.76 417.75 198.75 C 424.54 191.74 437.91 192.39 445.23 195.77 C 452.55 199.15 461.29 209.82 458.00 218.00 C 454.71 226.19 432.28 218.10 425.00 221.00
C 423.72 229.55 439.01 234.05 441.00 225.00
C 446.00 225.00 451.00 225.00 456.00 225.00
C 455.51 233.06 446.74 240.33 439.00 241.00
M 507.00 209.00 
C 491.17 212.00 498.61 228.08 497.00 241.00
C 492.00 241.00 487.00 241.00 482.00 241.00
C 482.00 225.33 482.00 209.67 482.00 194.00
C 487.53 195.08 499.44 190.35 497.00 200.00
C 500.39 197.44 503.43 193.87 508.00 194.00
C 508.73 193.90 510.60 192.09 512.00 193.00
C 512.00 198.33 512.00 203.67 512.00 209.00
C 510.33 209.00 508.67 209.00 507.00 209.00
M 690.00 211.00 
C 684.67 211.00 679.33 211.00 674.00 211.00
C 669.08 200.70 658.44 207.51 658.01 217.01 C 657.57 226.51 668.85 234.99 674.00 224.00
C 679.00 224.00 684.00 224.00 689.00 224.00
C 682.89 251.07 643.09 244.79 643.40 217.26 C 643.71 189.73 683.13 183.94 690.00 211.00
M 741.00 241.00 
C 737.73 241.73 735.21 241.66 732.00 241.00
C 723.50 239.24 714.80 234.43 713.08 224.92 C 711.35 215.41 712.97 205.76 719.75 198.75 C 726.54 191.74 739.91 192.39 747.23 195.77 C 754.55 199.15 763.29 209.82 760.00 218.00 C 756.71 226.19 734.28 218.10 727.00 221.00
C 725.72 229.55 741.01 234.05 743.00 225.00
C 748.00 225.00 753.00 225.00 758.00 225.00
C 757.51 233.06 748.74 240.33 741.00 241.00
M 782.00 226.00 
C 783.61 223.51 794.06 224.80 796.00 226.00
C 798.16 227.34 804.74 235.48 808.23 229.23 C 811.72 222.97 800.87 222.76 797.33 221.67 C 793.79 220.58 787.76 218.77 785.25 214.75 C 782.73 210.73 782.36 203.77 785.77 199.77 C 789.18 195.77 793.24 194.36 798.22 193.22 C 803.21 192.09 810.56 193.31 814.70 196.31 C 818.83 199.30 822.17 203.90 822.00 209.00
C 817.67 209.00 813.33 209.00 809.00 209.00
C 800.33 196.75 793.78 211.56 805.67 212.33 C 817.57 213.10 822.60 219.73 822.00 230.00 C 821.40 240.27 808.75 241.46 800.93 241.07 C 793.10 240.68 781.55 236.19 782.00 226.00
M 547.00 194.00 
C 549.08 205.26 553.17 216.59 557.00 227.00
C 559.25 215.82 563.97 205.30 566.00 194.00
C 571.33 194.00 576.67 194.00 582.00 194.00
C 576.91 209.77 570.12 224.94 566.00 241.00
C 559.67 241.00 553.33 241.00 547.00 241.00
C 542.64 225.07 535.85 209.83 531.00 194.00
C 536.33 194.00 541.67 194.00 547.00 194.00
M 620.00 194.00 
C 620.00 209.67 620.00 225.33 620.00 241.00
C 615.00 241.00 610.00 241.00 605.00 241.00
C 605.00 225.33 605.00 209.67 605.00 194.00
C 610.00 194.00 615.00 194.00 620.00 194.00 Z"/>
</g>
<g fill="#3093C7" fill-opacity="0.89" stroke="None">
<path d="
M 129.00 162.00 
C 125.24 164.21 123.72 165.49 118.00 166.00
C 116.40 166.14 116.12 166.38 115.00 167.00
C 127.76 167.55 139.32 163.25 151.00 160.00
C 150.56 158.02 148.03 156.05 146.00 155.00
C 146.25 155.13 143.34 154.00 144.00 154.00
C 139.42 157.41 134.21 159.96 129.00 162.00 Z"/>
</g>
<g fill="#66B5D9" fill-opacity="0.44" stroke="None">
<path d="
M 79.00 166.00 
C 80.99 166.09 83.02 165.82 85.00 166.00
C 81.65 165.03 77.55 163.39 74.00 162.00
C 75.40 162.82 77.29 165.62 79.00 166.00 Z"/>
</g>
<g fill="#6BB7DA" fill-opacity="0.42" stroke="None">
<path d="
M 118.00 166.00 
C 123.72 165.49 125.24 164.21 129.00 162.00
C 125.35 163.43 121.48 165.12 118.00 166.00 Z"/>
</g>
<g fill="#F6FAFC" fill-opacity="1.00" stroke="None">
<path d="
M 614.00 173.00 
C 603.20 171.79 600.01 186.81 611.00 189.00 C 621.99 191.18 624.70 174.20 614.00 173.00 Z"/>
</g>
<g fill="#4D8FC1" fill-opacity="0.50" stroke="None">
<path d="
M 96.00 180.00 
C 98.74 182.29 105.69 181.55 108.00 179.00
C 104.84 181.49 99.68 179.20 96.00 180.00 Z"/>
</g>
<g fill="#FBFCFD" fill-opacity="1.00" stroke="None">
<path d="
M 371.00 198.00 
C 375.26 196.73 384.25 200.58 386.00 196.00
C 385.01 187.60 377.20 181.77 369.00 181.00 C 360.80 180.23 350.98 181.60 345.77 188.77 C 340.56 195.94 342.18 206.19 349.31 211.69 C 356.43 217.20 364.42 213.64 370.74 221.26 C 377.07 228.87 356.62 235.41 358.00 223.00
C 353.00 223.00 348.00 223.00 343.00 223.00
C 342.14 229.42 345.87 234.41 350.92 238.08 C 355.98 241.74 364.99 241.41 370.99 240.99 C 376.99 240.57 381.63 236.80 385.08 232.08 C 388.52 227.35 387.64 219.03 384.75 214.25 C 381.87 209.47 374.09 208.32 370.02 205.98 C 365.96 203.63 354.82 203.36 358.25 195.25 C 361.67 187.14 368.52 196.30 371.00 198.00 Z"/>
</g>
<g fill="#000000" fill-opacity="0.00" stroke="None">
<path d="
M 93.00 196.00 
C 91.28 201.99 87.22 212.57 88.33 218.67 C 89.45 224.77 100.36 227.60 101.00 234.00
C 106.20 228.65 110.38 225.56 114.70 219.70 C 119.01 213.84 110.06 203.56 111.00 197.00
C 109.32 192.97 107.58 188.37 106.00 184.00
C 97.03 181.04 94.73 189.98 93.00 196.00 Z"/>
</g>
<g fill="#2062A5" fill-opacity="0.96" stroke="None">
<path d="
M 41.00 193.00 
C 41.53 193.93 41.13 195.07 42.00 196.00
C 42.24 196.26 42.75 196.74 43.00 197.00
C 47.82 202.01 51.19 209.03 55.25 214.75 C 59.32 220.46 65.08 225.79 68.00 232.00
C 68.34 232.15 68.76 232.93 69.00 233.00
C 79.38 235.94 91.16 238.05 102.00 239.00
C 104.95 239.26 108.04 239.00 111.00 239.00
C 117.00 239.00 123.00 239.00 129.00 239.00
C 129.50 239.00 130.00 239.00 130.00 239.00
C 135.24 234.08 138.37 227.09 142.75 221.75 C 147.13 216.41 152.48 210.27 155.00 204.00
C 155.47 202.83 155.50 200.98 156.00 200.00
C 151.05 201.48 144.58 198.26 140.00 199.00 C 135.42 199.74 127.56 197.82 124.00 198.00 C 120.44 198.18 111.73 195.72 111.00 197.00
C 110.06 203.56 119.01 213.84 114.70 219.70 C 110.38 225.56 106.20 228.65 101.00 234.00
C 100.36 227.60 89.45 224.77 88.33 218.67 C 87.22 212.57 91.28 201.99 93.00 196.00
C 91.00 192.92 78.14 195.01 74.00 194.00 C 69.86 192.99 59.18 193.48 55.00 193.00 C 50.83 192.51 40.33 189.38 41.00 193.00 Z"/>
</g>
<g fill="#FBFCFD" fill-opacity="1.00" stroke="None">
<path d="
M 430.00 241.00 
C 432.82 241.26 436.19 241.29 439.00 241.00
C 446.74 240.33 455.51 233.06 456.00 225.00
C 451.00 225.00 446.00 225.00 441.00 225.00
C 439.01 234.05 423.72 229.55 425.00 221.00
C 432.28 218.10 454.71 226.19 458.00 218.00 C 461.29 209.82 452.55 199.15 445.23 195.77 C 437.91 192.39 424.54 191.74 417.75 198.75 C 410.97 205.76 409.35 215.41 411.08 224.92 C 412.80 234.43 421.50 239.24 430.00 241.00
M 443.00 213.00 
C 437.00 213.00 431.00 213.00 425.00 213.00
C 424.28 202.20 443.71 202.18 443.00 213.00 Z"/>
</g>
<g fill="#88BADA" fill-opacity="1.00" stroke="None">
<path d="
M 508.00 194.00 
C 508.96 194.20 510.03 193.84 511.00 194.00
C 511.00 198.67 511.00 203.33 511.00 208.00
C 509.72 208.28 507.50 207.24 507.00 209.00
C 508.67 209.00 510.33 209.00 512.00 209.00
C 512.00 203.67 512.00 198.33 512.00 193.00
C 510.60 192.09 508.73 193.90 508.00 194.00 Z"/>
</g>
<g fill="#FAFCFD" fill-opacity="1.00" stroke="None">
<path d="
M 690.00 211.00 
C 683.13 183.94 643.71 189.73 643.40 217.26 C 643.09 244.79 682.89 251.07 689.00 224.00
C 684.00 224.00 679.00 224.00 674.00 224.00
C 668.85 234.99 657.57 226.51 658.01 217.01 C 658.44 207.51 669.08 200.70 674.00 211.00
C 679.33 211.00 684.67 211.00 690.00 211.00 Z"/>
</g>
<g fill="#FBFCFD" fill-opacity="1.00" stroke="None">
<path d="
M 732.00 241.00 
C 734.82 241.26 738.19 241.29 741.00 241.00
C 748.74 240.33 757.51 233.06 758.00 225.00
C 753.00 225.00 748.00 225.00 743.00 225.00
C 741.01 234.05 725.72 229.55 727.00 221.00
C 734.28 218.10 756.71 226.19 760.00 218.00 C 763.29 209.82 754.55 199.15 747.23 195.77 C 739.91 192.39 726.54 191.74 719.75 198.75 C 712.97 205.76 711.35 215.41 713.08 224.92 C 714.80 234.43 723.50 239.24 732.00 241.00
M 745.00 213.00 
C 739.00 213.00 733.00 213.00 727.00 213.00
C 726.28 202.20 745.71 202.18 745.00 213.00 Z"/>
</g>
<g fill="#F9FCFD" fill-opacity="1.00" stroke="None">
<path d="
M 796.00 226.00 
C 791.33 226.00 786.67 226.00 782.00 226.00
C 781.55 236.19 793.10 240.68 800.93 241.07 C 808.75 241.46 821.40 240.27 822.00 230.00 C 822.60 219.73 817.57 213.10 805.67 212.33 C 793.78 211.56 800.33 196.75 809.00 209.00
C 813.33 209.00 817.67 209.00 822.00 209.00
C 822.17 203.90 818.83 199.30 814.70 196.31 C 810.56 193.31 803.21 192.09 798.22 193.22 C 793.24 194.36 789.18 195.77 785.77 199.77 C 782.36 203.77 782.73 210.73 785.25 214.75 C 787.76 218.77 793.79 220.58 797.33 221.67 C 800.87 222.76 811.72 222.97 808.23 229.23 C 804.74 235.48 798.16 227.34 796.00 226.00 Z"/>
</g>
<g fill="#F8FBFD" fill-opacity="1.00" stroke="None">
<path d="
M 507.00 209.00 
C 507.50 207.24 509.72 208.28 511.00 208.00
C 511.00 203.33 511.00 198.67 511.00 194.00
C 510.03 193.84 508.96 194.20 508.00 194.00
C 503.43 193.87 500.39 197.44 497.00 200.00
C 499.44 190.35 487.53 195.08 482.00 194.00
C 482.00 209.67 482.00 225.33 482.00 241.00
C 487.00 241.00 492.00 241.00 497.00 241.00
C 498.61 228.08 491.17 212.00 507.00 209.00 Z"/>
</g>
<g fill="#FAFCFD" fill-opacity="1.00" stroke="None">
<path d="
M 547.00 194.00 
C 541.67 194.00 536.33 194.00 531.00 194.00
C 535.85 209.83 542.64 225.07 547.00 241.00
C 553.33 241.00 559.67 241.00 566.00 241.00
C 570.12 224.94 576.91 209.77 582.00 194.00
C 576.67 194.00 571.33 194.00 566.00 194.00
C 563.97 205.30 559.25 215.82 557.00 227.00
C 553.17 216.59 549.08 205.26 547.00 194.00 Z"/>
</g>
<g fill="#F6FAFC" fill-opacity="1.00" stroke="None">
<path d="
M 620.00 194.00 
C 615.00 194.00 610.00 194.00 605.00 194.00
C 605.00 209.67 605.00 225.33 605.00 241.00
C 610.00 241.00 615.00 241.00 620.00 241.00
C 620.00 225.33 620.00 209.67 620.00 194.00 Z"/>
</g>
<g fill="#F59F39" fill-opacity="0.92" stroke="None">
<path d="
M 24.00 220.00 
C 23.74 223.60 23.97 228.61 25.00 232.00
C 31.99 246.77 56.76 251.59 71.00 254.00
C 70.23 253.60 69.36 252.42 68.00 253.00
C 68.58 246.40 66.79 239.17 69.00 233.00
C 68.76 232.93 68.34 232.15 68.00 232.00
C 62.55 229.58 57.83 228.63 52.75 225.25 C 47.68 221.87 45.38 220.27 41.23 214.77 C 37.08 209.27 43.27 201.87 43.00 197.00
C 42.75 196.74 42.24 196.26 42.00 196.00
C 37.54 196.30 34.50 203.18 30.75 205.75 C 27.00 208.33 24.85 215.91 24.00 220.00 Z"/>
</g>
<g fill="#5A8DBF" fill-opacity="0.47" stroke="None">
<path d="
M 156.00 200.00 
C 155.50 200.98 155.47 202.83 155.00 204.00
C 156.84 201.48 159.08 198.68 161.00 196.00
C 159.89 197.11 156.72 198.58 156.00 200.00 Z"/>
</g>
<g fill="#85B8D9" fill-opacity="1.00" stroke="None">
<path d="
M 371.00 198.00 
C 375.34 200.31 381.84 198.35 387.00 199.00
C 387.89 198.00 386.01 196.32 386.00 196.00
C 384.25 200.58 375.26 196.73 371.00 198.00 Z"/>
</g>
<g fill="#000000" fill-opacity="0.00" stroke="None">
<path d="
M 68.00 232.00 
C 65.08 225.79 59.32 220.46 55.25 214.75 C 51.19 209.03 47.82 202.01 43.00 197.00
C 43.27 201.87 37.08 209.27 41.23 214.77 C 45.38 220.27 47.68 221.87 52.75 225.25 C 57.83 228.63 62.55 229.58 68.00 232.00 Z"/>
</g>
<g fill="#3287BE" fill-opacity="1.00" stroke="None">
<path d="
M 443.00 213.00 
C 443.71 202.18 424.28 202.20 425.00 213.00
C 431.00 213.00 437.00 213.00 443.00 213.00 Z"/>
</g>
<g fill="#3287BE" fill-opacity="1.00" stroke="None">
<path d="
M 745.00 213.00 
C 745.71 202.18 726.28 202.20 727.00 213.00
C 733.00 213.00 739.00 213.00 745.00 213.00 Z"/>
</g>
<g fill="#F9BD65" fill-opacity="0.42" stroke="None">
<path d="
M 25.00 232.00 
C 23.97 228.61 23.74 223.60 24.00 220.00
C 23.11 224.30 23.02 227.82 25.00 232.00 Z"/>
</g>
<g fill="#EC837F" fill-opacity="0.33" stroke="None">
<path d="
M 213.00 225.00 
C 213.99 225.12 215.01 224.90 216.00 225.00
C 213.93 228.94 208.92 229.92 207.00 234.00
C 212.79 230.40 217.68 226.49 222.00 221.00
C 218.72 221.35 215.80 224.09 213.00 225.00 Z"/>
</g>
<g fill="#E5513E" fill-opacity="0.86" stroke="None">
<path d="
M 176.00 234.00 
C 181.02 236.20 175.10 245.61 179.00 248.00
C 189.08 244.23 198.08 240.12 207.00 234.00
C 208.92 229.92 213.93 228.94 216.00 225.00
C 215.01 224.90 213.99 225.12 213.00 225.00
C 201.19 228.83 188.25 232.05 176.00 234.00 Z"/>
</g>
<g fill="#88BADA" fill-opacity="1.00" stroke="None">
<path d="
M 782.00 226.00 
C 786.67 226.00 791.33 226.00 796.00 226.00
C 794.06 224.80 783.61 223.51 782.00 226.00 Z"/>
</g>
<g fill="#EE8635" fill-opacity="0.98" stroke="None">
<path d="
M 71.00 254.00 
C 76.92 255.00 83.00 256.33 89.00 257.00
C 96.93 257.89 104.89 257.27 113.00 258.00
C 110.06 257.72 105.65 256.14 102.00 257.00
C 102.00 251.00 102.00 245.00 102.00 239.00
C 91.16 238.05 79.38 235.94 69.00 233.00
C 66.79 239.17 68.58 246.40 68.00 253.00
C 69.36 252.42 70.23 253.60 71.00 254.00 Z"/>
</g>
<g fill="#E86238" fill-opacity="0.93" stroke="None">
<path d="
M 149.00 238.00 
C 145.02 239.16 141.81 240.00 137.00 240.00
C 138.43 244.70 134.21 254.89 139.00 257.00
C 152.98 254.73 166.09 252.83 179.00 248.00
C 175.10 245.61 181.02 236.20 176.00 234.00
C 167.06 235.42 157.96 236.57 149.00 238.00 Z"/>
</g>
<g fill="#EC8E69" fill-opacity="0.40" stroke="None">
<path d="
M 130.00 239.00 
C 130.00 239.00 129.50 239.00 129.00 239.00
C 128.75 239.25 129.00 240.00 129.00 240.00
C 131.67 240.00 134.33 240.00 137.00 240.00
C 141.81 240.00 145.02 239.16 149.00 238.00
C 142.76 238.99 136.53 239.00 130.00 239.00 Z"/>
</g>
<g fill="#EB7433" fill-opacity="0.99" stroke="None">
<path d="
M 113.00 258.00 
C 117.58 257.58 122.40 258.00 127.00 258.00
C 131.17 258.00 135.47 257.57 139.00 257.00
C 134.21 254.89 138.43 244.70 137.00 240.00
C 134.33 240.00 131.67 240.00 129.00 240.00
C 122.95 240.00 116.30 239.51 111.00 239.00
C 108.04 239.00 104.95 239.26 102.00 239.00
C 102.00 245.00 102.00 251.00 102.00 257.00
C 105.65 256.14 110.06 257.72 113.00 258.00 Z"/>
</g>
<g fill="#876567" fill-opacity="1.00" stroke="None">
<path d="
M 129.00 240.00 
C 129.00 240.00 128.75 239.25 129.00 239.00
C 123.00 239.00 117.00 239.00 111.00 239.00
C 116.30 239.51 122.95 240.00 129.00 240.00 Z"/>
</g>
<g fill="#9BC5E0" fill-opacity="1.00" stroke="None">
<path d="
M 439.00 241.00 
C 436.19 241.29 432.82 241.26 430.00 241.00
C 433.21 241.66 435.73 241.73 439.00 241.00 Z"/>
</g>
<g fill="#9BC5E0" fill-opacity="1.00" stroke="None">
<path d="
M 741.00 241.00 
C 738.19 241.29 734.82 241.26 732.00 241.00
C 735.21 241.66 737.73 241.73 741.00 241.00 Z"/>
</g>
<g fill="#2D599C" fill-opacity="0.87" stroke="None">
<path d="
M 113.00 259.00 
C 113.22 258.64 113.00 258.00 113.00 258.00
C 104.89 257.27 96.93 257.89 89.00 257.00
C 92.85 262.30 97.19 269.02 103.00 272.00
C 106.29 267.63 110.10 263.66 113.00 259.00 Z"/>
</g>
<g fill="#F6C7AD" fill-opacity="0.13" stroke="None">
<path d="
M 113.00 259.00 
C 117.76 259.43 122.96 258.39 127.00 258.00
C 122.40 258.00 117.58 257.58 113.00 258.00
C 113.00 258.00 113.22 258.64 113.00 259.00 Z"/>
</g>
<g fill="#2080BB" fill-opacity="0.25" stroke="None">
<path d="
M 242.00 276.00 
L 894.00 276.00
C 851.49 274.11 807.39 275.07 764.00 275.00 C 720.61 274.93 676.42 274.75 633.00 275.00 C 589.58 275.25 546.40 274.24 503.00 275.00 C 459.60 275.76 415.30 273.25 372.00 275.00 C 328.70 276.75 285.07 271.06 242.00 275.00
C 242.00 275.00 242.00 275.50 242.00 276.00 Z"/>
</g>
</svg>